<?xml version="1.0" encoding="utf-8"?>
<!-- Generator: Adobe Illustrator 17.0.0, SVG Export Plug-In . SVG Version: 6.00 Build 0)  -->
<!DOCTYPE svg PUBLIC "-//W3C//DTD SVG 1.1//EN" "http://www.w3.org/Graphics/SVG/1.1/DTD/svg11.dtd">
<svg version="1.1" id="Layer_1" xmlns="http://www.w3.org/2000/svg" xmlns:xlink="http://www.w3.org/1999/xlink" x="0px" y="0px"
	 width="60px" height="60px" viewBox="0 0 60 60" enable-background="new 0 0 60 60" xml:space="preserve">
<path d="M45.708,0.117c0.55,0.117,1.104,0.219,1.65,0.353c4.963,1.22,9.772,6.374,9.372,12.481c-0.164,2.51-1.131,4.678-2.804,6.542
	c-0.156,0.174-0.322,0.341-0.487,0.507C43.771,29.67,34.105,39.34,24.433,49.005c-2.844,2.842-7.207,2.919-10.002,0.196
	c-2.836-2.763-2.858-7.244-0.025-10.085c5.006-5.021,10.025-10.03,15.039-15.044c1.547-1.547,3.09-3.098,4.643-4.639
	c0.625-0.62,1.375-0.736,2.085-0.358c0.644,0.343,1.04,1.033,0.843,1.764c-0.118,0.442-0.411,0.885-0.739,1.215
	c-5.137,5.166-10.293,10.314-15.445,15.466c-1.353,1.354-2.731,2.684-4.054,4.067c-1.954,2.043-1.091,5.301,1.585,6.04
	c1.211,0.334,2.321,0.081,3.298-0.709c0.227-0.184,0.429-0.399,0.636-0.606c9.407-9.405,18.728-18.899,28.256-28.179
	c4.441-4.325,2.975-10.253-1.398-13.15c-3.329-2.205-7.159-1.825-9.978,0.993C28.94,16.211,18.747,26.487,8.456,36.664
	c-5.466,5.405-4.563,14.749,2.475,18.626c4.363,2.404,9.84,1.708,13.489-1.689c0.214-0.2,0.422-0.406,0.629-0.613
	c10.18-10.179,20.36-20.358,30.536-30.541c0.445-0.445,0.918-0.804,1.58-0.75c0.65,0.053,1.151,0.369,1.427,0.972
	c0.273,0.595,0.221,1.183-0.153,1.723c-0.132,0.191-0.307,0.353-0.472,0.519c-10.192,10.194-20.39,20.383-30.576,30.583
	c-3.163,3.168-6.96,4.721-11.434,4.621c-7.166-0.161-13.459-5.828-14.327-12.91c-0.617-5.037,0.848-9.365,4.443-12.96
	C16.25,24.064,26.436,13.891,36.602,3.698c1.882-1.887,4.04-3.167,6.714-3.498c0.058-0.007,0.11-0.054,0.165-0.083
	C44.223,0.117,44.966,0.117,45.708,0.117z"/>
<path fill="none" enable-background="new    " d="z"/>
</svg>
