<?xml version="1.0" encoding="utf-8"?>
<!-- Generator: Adobe Illustrator 17.0.0, SVG Export Plug-In . SVG Version: 6.00 Build 0)  -->
<!DOCTYPE svg PUBLIC "-//W3C//DTD SVG 1.1//EN" "http://www.w3.org/Graphics/SVG/1.1/DTD/svg11.dtd">
<svg version="1.1" id="Layer_1" xmlns="http://www.w3.org/2000/svg" xmlns:xlink="http://www.w3.org/1999/xlink" x="0px" y="0px"
	 width="60px" height="60px" viewBox="0 0 60 60" enable-background="new 0 0 60 60" xml:space="preserve">
<g>
	<path d="M58.297,22.142c-0.118,0.297-0.212,0.607-0.359,0.889c-0.632,1.213-1.636,1.88-3.009,1.899
		c-1.898,0.026-3.797,0.008-5.696,0.009c-0.217,0-0.433,0-0.662,0c-0.059,0.867-0.019,1.689-0.189,2.464
		c-0.259,1.175-0.552,2.367-1.032,3.463c-0.753,1.719-1.169,3.468-1.094,5.343c0.03,0.764,0.005,1.53,0.005,2.378
		c0.291,0,0.526-0.002,0.762,0c1.136,0.009,1.491,0.356,1.492,1.478c0.003,3.454,0.001,6.908,0.001,10.362
		c0,1.636,0.004,3.272-0.002,4.908c-0.004,1.042-0.386,1.428-1.428,1.428c-7.373,0.003-14.745,0.003-22.118,0
		c-1.058,0-1.445-0.404-1.445-1.485c-0.002-5.07-0.002-10.14,0-15.21c0-1.11,0.37-1.472,1.501-1.481c0.238-0.002,0.476,0,0.861,0
		c-0.087-1.454-0.094-2.843-0.274-4.209c-0.146-1.106-0.804-2.008-1.593-2.795c-1.23-1.226-2.501-2.417-3.669-3.7
		c-0.684-0.751-1.236-1.632-1.777-2.499c-0.197-0.316-0.348-0.456-0.725-0.453c-2.363,0.018-4.727,0.023-7.09-0.004
		c-0.426-0.005-0.888-0.102-1.269-0.289c-2.807-1.376-5.603-2.775-8.387-4.198c-0.373-0.191-0.657-0.557-0.982-0.842
		c0-0.242,0-0.485,0-0.727c0.354-0.28,0.674-0.629,1.069-0.83c2.749-1.4,5.509-2.78,8.28-4.135c0.399-0.195,0.881-0.311,1.325-0.313
		c3.998-0.024,7.996-0.014,11.995-0.014c0.232,0,0.463,0,0.648,0c0.053-0.116,0.068-0.133,0.068-0.151
		c0.007-1.656-0.004-3.311,0.022-4.967c0.033-2.073,1.508-3.693,3.557-3.934c1.264-0.148,2.334,0.299,3.268,1.145
		c0.817-0.775,1.765-1.181,2.863-1.176c1.091,0.005,2.029,0.435,2.811,1.171c1.799-1.745,5.206-1.745,6.615,1.397
		c0.806-0.096,1.586-0.323,2.338-0.252c2.051,0.196,3.469,1.807,3.527,3.874c0.026,0.943,0.004,1.887,0.004,2.893
		c0.301,0,0.519,0,0.737,0c1.838,0,3.675-0.011,5.513,0.004c1.615,0.013,2.827,0.864,3.351,2.313
		c0.053,0.147,0.123,0.287,0.186,0.43C58.297,18.264,58.297,20.203,58.297,22.142z M34.665,15.865c-3.127,0-6.215-0.04-9.302,0.029
		c-0.736,0.016-1.516,0.292-2.186,0.627c-3.749,1.875-3.912,7.153-1.418,9.598c1.341,1.315,2.659,2.652,3.984,3.984
		c1.11,1.116,1.902,2.431,2.133,3.991c0.168,1.131,0.148,2.289,0.203,3.436c0.016,0.333,0.002,0.668,0.002,1.007
		c5.354,0,10.612,0,15.906,0c0-0.733,0.016-1.419-0.003-2.104c-0.048-1.688,0.086-3.351,0.68-4.946
		c0.344-0.925,0.764-1.822,1.094-2.752c0.429-1.207,0.573-2.459,0.477-3.768c-4.021,0-7.992,0-11.935,0
		c0.177,0.887,0.416,1.764,0.512,2.656c0.1,0.92,0.074,1.854,0.08,2.782c0.005,0.842-0.439,1.342-1.146,1.337
		c-0.703-0.004-1.122-0.502-1.133-1.353c-0.007-0.545-0.004-1.09-0.006-1.636c-0.015-3.683-2.157-6.361-5.753-7.227
		c-0.294-0.071-0.674-0.237-0.792-0.471c-0.161-0.32-0.211-0.774-0.121-1.123c0.129-0.501,0.603-0.671,1.104-0.675
		c1.211-0.01,2.424,0.021,3.634-0.025C32.57,19.163,34.416,17.605,34.665,15.865z M25.837,54.449c6.826,0,13.598,0,20.388,0
		c0-4.537,0-9.031,0-13.563c-6.811,0-13.584,0-20.388,0C25.837,45.414,25.837,49.911,25.837,54.449z M35.771,19.003
		c-0.61,0.503-1.171,1.068-1.828,1.476c-0.67,0.417-1.435,0.68-2.265,1.059c0.219,0.178,0.473,0.308,0.614,0.516
		c0.36,0.531,0.835,0.629,1.447,0.627c5.655-0.022,11.31-0.012,16.964-0.015c0.251,0,0.502-0.026,0.752-0.04c0-2.287,0-4.5,0-6.73
		c-0.988,0-1.941,0-2.939,0c0.085,1.837-0.574,3.264-2.219,4.074c-1.668,0.821-3.209,0.457-4.578-0.721
		C39.469,20.881,38.099,20.814,35.771,19.003z M12.588,15.883c1.022,2.248,1.019,4.492,0.01,6.744c1.784,0,3.49,0,5.256,0
		c-0.162-2.556,0.495-4.813,2.339-6.744C17.597,15.883,15.128,15.883,12.588,15.883z M40.582,12.443c0-0.303,0-0.605,0-0.908
		c-0.002-1.029,0.028-2.06-0.015-3.088c-0.041-0.989-0.799-1.695-1.716-1.684c-0.879,0.01-1.647,0.694-1.656,1.599
		c-0.028,2.724-0.022,5.449-0.002,8.173c0.006,0.743,0.441,1.243,1.132,1.488c1.136,0.403,2.223-0.411,2.251-1.705
		C40.603,15.027,40.581,13.735,40.582,12.443z M46.262,13.579c0-0.847,0-1.695,0-2.542c0-0.04,0.001-0.081-0.001-0.121
		c-0.038-1.134-0.714-1.87-1.715-1.868c-1.004,0.002-1.686,0.73-1.697,1.874c-0.017,1.776-0.018,3.551,0,5.327
		c0.011,1.123,0.722,1.884,1.702,1.881c0.982-0.003,1.684-0.765,1.706-1.887C46.276,15.355,46.262,14.466,46.262,13.579z
		 M10.024,16.148c-2.063,1.034-4.1,2.054-6.223,3.118c2.158,1.078,4.202,2.099,6.235,3.114
		C11.422,20.581,11.421,17.878,10.024,16.148z M29.197,13.547c0-1.787,0.035-3.52-0.014-5.251c-0.025-0.89-0.855-1.56-1.725-1.532
		c-0.88,0.028-1.613,0.726-1.64,1.625c-0.031,1.029-0.011,2.059-0.012,3.088c-0.001,0.68,0,1.361,0,2.07
		C26.959,13.547,28.042,13.547,29.197,13.547z M34.897,13.558c0-1.671,0.007-3.281-0.002-4.89c-0.006-1.118-0.697-1.887-1.684-1.904
		c-1.004-0.017-1.713,0.765-1.718,1.917c-0.007,1.453-0.003,2.906,0,4.358c0,0.172,0.026,0.343,0.041,0.519
		C32.665,13.558,33.732,13.558,34.897,13.558z M53.788,22.652c0.427,0,0.808,0.025,1.184-0.006c0.612-0.05,1.021-0.45,1.029-1.061
		c0.021-1.555,0.02-3.111,0-4.666c-0.007-0.583-0.375-0.946-0.927-1.036c-0.407-0.067-0.834-0.013-1.287-0.013
		C53.788,18.133,53.788,20.348,53.788,22.652z"/>
	<path d="M38.344,45.402c-1.432,0-2.863,0.003-4.295-0.001c-0.885-0.002-1.421-0.428-1.431-1.126
		c-0.011-0.699,0.532-1.153,1.402-1.154c2.843-0.003,5.686-0.003,8.529,0c0.887,0.001,1.422,0.426,1.432,1.125
		c0.01,0.715-0.541,1.155-1.463,1.156C41.126,45.404,39.735,45.402,38.344,45.402z"/>
	<path d="M29.199,43.125c0.609-0.006,1.115,0.493,1.127,1.11c0.012,0.644-0.508,1.174-1.138,1.161
		c-0.61-0.013-1.099-0.522-1.097-1.142C28.094,43.636,28.589,43.131,29.199,43.125z"/>
</g>
</svg>
