<?xml version="1.0" encoding="utf-8"?>
<!-- Generator: Adobe Illustrator 17.0.0, SVG Export Plug-In . SVG Version: 6.00 Build 0)  -->
<!DOCTYPE svg PUBLIC "-//W3C//DTD SVG 1.1//EN" "http://www.w3.org/Graphics/SVG/1.1/DTD/svg11.dtd">
<svg version="1.1" id="Layer_1" xmlns="http://www.w3.org/2000/svg" xmlns:xlink="http://www.w3.org/1999/xlink" x="0px" y="0px"
	 width="60px" height="60px" viewBox="0 0 60 60" enable-background="new 0 0 60 60" xml:space="preserve">
<g>
	<path d="M0.117,37.504c0-12.455,0-24.909,0-37.387c19.768,0,39.535,0,59.303,0c0.538,0.293,0.713,0.741,0.712,1.352
		c-0.013,11.758-0.009,23.515-0.01,35.273c0,1.06-0.301,1.367-1.347,1.367c-2.988,0.002-5.977,0.001-8.965,0.001
		c-0.209,0-0.419,0-0.695,0c0,0.409,0.027,0.757-0.006,1.1c-0.047,0.491,0.124,0.784,0.54,1.097
		c1.846,1.385,2.673,3.254,2.412,5.567c-0.185,1.636-0.999,2.931-2.258,3.99c0.085,0.063,0.14,0.116,0.205,0.151
		c3.458,1.824,5.151,4.694,5.106,8.6c-0.014,1.256-0.253,1.509-1.502,1.509c-15.664,0-31.328,0-46.992,0
		c-0.195,0-0.394,0.016-0.585-0.011c-0.526-0.077-0.862-0.372-0.895-0.918c-0.215-3.564,1.011-6.463,3.985-8.536
		c0.409-0.285,0.86-0.513,1.293-0.768c-0.039-0.056-0.055-0.095-0.083-0.119c-3.195-2.624-2.861-7.484,0.53-9.684
		c0.113-0.073,0.24-0.226,0.246-0.347c0.027-0.52,0.012-1.043,0.012-1.628c-0.274,0-0.483,0-0.692,0
		c-2.949,0-5.899-0.014-8.847,0.011C0.976,38.127,0.482,38.005,0.117,37.504z M42.913,17.665c0.155-0.206,0.273-0.358,0.385-0.514
		c1.238-1.731,2.474-3.463,3.711-5.194c0.738-1.033,1.108-1.089,2.143-0.314c1.11,0.83,2.219,1.662,3.325,2.496
		c0.773,0.584,0.84,1.036,0.265,1.829c-1.71,2.353-3.419,4.707-5.136,7.055c-1.954,2.673-5.115,3.05-7.658,0.921
		c-0.243-0.203-0.489-0.403-0.774-0.637c0,1.331,0,2.551,0,3.806c0.278,0,0.511,0,0.743,0c3.887,0,7.773-0.001,11.66,0.001
		c0.234,0,0.472-0.006,0.7,0.036c0.502,0.091,0.815,0.401,0.821,0.918c0.017,1.367,0.023,2.734-0.002,4.101
		c-0.011,0.603-0.419,0.936-1.108,0.953c-0.761,0.019-1.523,0.003-2.285,0.007c-0.186,0.001-0.371,0.025-0.549,0.038
		c0,1.011,0,1.957,0,2.911c2.999,0,5.958,0,8.934,0c0-11.33,0-22.625,0-33.917c-18.676,0-37.314,0-55.944,0
		c0,11.33,0,22.612,0,33.902c3.005,0,5.977,0,8.938,0c0-0.997,0-1.945,0-2.936c-0.918,0-1.795,0.006-2.672-0.002
		c-0.947-0.008-1.278-0.334-1.282-1.264c-0.005-1.113-0.002-2.227-0.001-3.34c0.001-1.125,0.287-1.408,1.432-1.409
		c3.945-0.001,7.891-0.001,11.836-0.001c0.225,0,0.449,0,0.664,0c0-1.303,0-2.514,0-3.799c-0.352,0.289-0.634,0.525-0.921,0.757
		c-2.424,1.955-5.567,1.574-7.414-0.926c-1.775-2.402-3.521-4.826-5.273-7.245c-0.524-0.724-0.445-1.193,0.279-1.739
		c1.184-0.894,2.372-1.783,3.562-2.67c0.765-0.57,1.249-0.493,1.813,0.293c1.285,1.793,2.565,3.589,3.849,5.383
		c0.11,0.154,0.231,0.301,0.336,0.438c1.277-0.923,2.479-1.892,3.779-2.704c1.339-0.837,2.912-0.818,4.519-0.787
		c-2.463-3.281-1.393-6.562,0.276-8.221c2.013-2.001,5.089-2.361,7.476-0.827c1.529,0.983,2.44,2.397,2.71,4.193
		c0.267,1.782-0.267,3.369-1.424,4.856c0.308,0,0.483,0.008,0.656-0.001c2.198-0.116,4.101,0.577,5.744,2.04
		C41.621,16.683,42.267,17.151,42.913,17.665z M13.122,39.082c11.38,0,22.675,0,33.966,0c0-1.996,0-3.943,0-5.962
		c-0.662,0-1.295,0-1.937,0c0-0.69,0-1.308,0-1.997c1.99,0,3.952,0,5.938,0c0-0.69,0-1.31,0-1.956c-13.989,0-27.958,0-41.927,0
		c0,0.667,0,1.283,0,1.96c0.969,0,1.903-0.014,2.837,0.004c0.753,0.014,1.099,0.379,1.121,1.128c0.006,0.215,0.001,0.43,0.001,0.645
		C13.122,34.952,13.122,37.001,13.122,39.082z M37.132,27.083c0-0.274,0-0.485,0-0.696c0-1.621,0.006-3.242-0.003-4.863
		c-0.003-0.525-0.001-1.04,0.567-1.298c0.55-0.25,0.964,0.023,1.37,0.373c0.739,0.638,1.495,1.256,2.247,1.878
		c1.579,1.305,3.421,1.085,4.631-0.566c1.511-2.063,3.01-4.134,4.512-6.204c0.087-0.12,0.152-0.256,0.241-0.408
		c-0.794-0.595-1.557-1.166-2.343-1.755c-0.143,0.188-0.264,0.339-0.377,0.496c-1.294,1.81-2.584,3.623-3.881,5.431
		c-0.561,0.782-1.074,0.849-1.813,0.258c-0.975-0.781-1.959-1.551-2.923-2.346c-1.02-0.841-2.175-1.266-3.5-1.263
		c-3.828,0.008-7.655,0.008-11.483,0c-1.326-0.003-2.479,0.425-3.499,1.267c-0.963,0.795-1.947,1.567-2.925,2.344
		c-0.746,0.593-1.245,0.523-1.81-0.263c-0.855-1.188-1.701-2.383-2.553-3.573c-0.555-0.776-1.113-1.549-1.695-2.359
		c-0.807,0.608-1.578,1.189-2.368,1.785c0.146,0.214,0.249,0.377,0.363,0.533c1.458,2.005,2.916,4.01,4.376,6.013
		c1.246,1.711,3.074,1.933,4.711,0.573c0.751-0.624,1.506-1.243,2.245-1.88c0.395-0.34,0.805-0.57,1.326-0.33
		c0.506,0.233,0.568,0.686,0.564,1.183c-0.011,1.679-0.004,3.359-0.004,5.038c0,0.205,0,0.411,0,0.611c2.054,0,4.013,0,6.029,0
		c0-2.993,0-5.935,0-8.904c0.675,0,1.293,0,1.989,0c0,2.985,0,5.94,0,8.925C33.151,27.083,35.097,27.083,37.132,27.083z
		 M21.128,58.11c-0.135-2.739-1.299-4.824-3.657-6.104c-2.609-1.416-5.202-1.198-7.582,0.571c-1.82,1.353-2.716,3.224-2.76,5.534
		C11.82,58.11,16.419,58.11,21.128,58.11z M37.072,58.094c0.208-2.068-1.197-4.664-3.24-5.891c-2.461-1.478-4.977-1.497-7.419,0.01
		c-2.146,1.324-3.186,3.332-3.303,5.881C27.803,58.094,32.439,58.094,37.072,58.094z M53.122,58.095
		c-0.107-2.627-1.208-4.658-3.439-5.969c-2.541-1.494-5.12-1.382-7.548,0.273c-1.973,1.344-2.944,3.28-3.007,5.696
		C43.828,58.095,48.442,58.095,53.122,58.095z M17.777,49.905c1.914,0.876,3.307,2.258,4.356,4.084
		c1.037-1.894,2.462-3.21,4.343-4.095c-1.35-1.115-2.157-2.481-2.323-4.177c-0.165-1.685,0.34-3.186,1.45-4.551
		c-2.361,0-4.624,0-6.917,0C21.072,44.327,20.244,47.838,17.777,49.905z M42.38,49.814c-1.248-1.051-2.056-2.406-2.223-4.111
		c-0.166-1.695,0.365-3.176,1.435-4.533c-2.34,0-4.604,0-6.958,0c1.127,1.377,1.618,2.884,1.449,4.571
		c-0.169,1.686-0.984,3.043-2.313,4.157c1.919,0.898,3.33,2.255,4.286,3.98c0.655-0.787,1.223-1.617,1.939-2.29
		C40.709,50.917,41.571,50.405,42.38,49.814z M14.062,49.114c2.233,0.02,4.048-1.759,4.059-3.98
		c0.011-2.167-1.758-3.975-3.916-4.003c-2.24-0.029-4.055,1.722-4.091,3.948C10.078,47.255,11.878,49.094,14.062,49.114z
		 M46.171,41.13c-2.233-0.017-4.046,1.767-4.051,3.986c-0.005,2.167,1.765,3.97,3.924,3.997c2.235,0.027,4.054-1.736,4.084-3.958
		C50.156,42.976,48.358,41.147,46.171,41.13z M34.112,10.151c0.013-2.203-1.749-4.007-3.943-4.04
		c-2.183-0.032-4.019,1.76-4.04,3.942c-0.021,2.248,1.736,4.042,3.971,4.055C32.306,14.121,34.099,12.352,34.112,10.151z
		 M30.081,49.114c2.213,0.014,4.012-1.744,4.031-3.939c0.019-2.219-1.73-4.021-3.924-4.044c-2.246-0.024-4.051,1.74-4.059,3.967
		C26.12,47.31,27.882,49.1,30.081,49.114z"/>
	<path d="M56.098,4.147c0,0.641,0,1.254,0,1.914c-0.63,0-1.257,0-1.925,0c0-0.622,0-1.25,0-1.914
		C54.812,4.147,55.439,4.147,56.098,4.147z"/>
	<path d="M50.162,6.073c0-0.659,0-1.275,0-1.927c0.645,0,1.261,0,1.924,0c0,0.631,0,1.261,0,1.927
		C51.456,6.073,50.841,6.073,50.162,6.073z"/>
	<path d="M48.095,4.182c0,0.609,0,1.224,0,1.883c-0.644,0-1.272,0-1.935,0c0-0.617,0-1.215,0-1.883
		C46.787,4.182,47.422,4.182,48.095,4.182z"/>
	<path d="M43.086,33.096c-0.645,0-1.261,0-1.917,0c0-0.651,0-1.281,0-1.941c0.644,0,1.261,0,1.917,0
		C43.086,31.788,43.086,32.405,43.086,33.096z"/>
</g>
</svg>
