<?xml version="1.0" encoding="utf-8"?>
<!-- Generator: Adobe Illustrator 17.0.0, SVG Export Plug-In . SVG Version: 6.00 Build 0)  -->
<!DOCTYPE svg PUBLIC "-//W3C//DTD SVG 1.1//EN" "http://www.w3.org/Graphics/SVG/1.1/DTD/svg11.dtd">
<svg version="1.1" id="Layer_1" xmlns="http://www.w3.org/2000/svg" xmlns:xlink="http://www.w3.org/1999/xlink" x="0px" y="0px"
	 width="60px" height="60px" viewBox="0 0 60 60" enable-background="new 0 0 60 60" xml:space="preserve">
<path d="M18.869,0.117c0.298,0.298,0.657,0.557,0.884,0.902c1.56,2.381,2.217,5.008,2.039,7.843
	c-0.024,0.383,0.065,0.64,0.371,0.899c5.334,4.518,10.66,9.046,15.973,13.589c0.354,0.303,0.611,0.313,1.03,0.154
	c6.623-2.517,13.276-2.723,19.951-0.195c1.133,0.429,1.301,1.291,0.429,2.163C54.3,30.721,49.052,35.969,43.803,41.215
	c-0.15,0.149-0.328,0.27-0.59,0.484c0.666,0.628,1.26,1.162,1.824,1.725c4.409,4.401,8.813,8.808,13.218,13.214
	c0.166,0.166,0.338,0.327,0.484,0.509c0.366,0.458,0.337,1.092-0.053,1.496c-0.405,0.419-1.064,0.452-1.54,0.069
	c-0.151-0.122-0.284-0.267-0.422-0.405c-4.834-4.833-9.667-9.666-14.499-14.502c-0.151-0.151-0.278-0.325-0.605-0.712
	c-0.172,0.304-0.249,0.547-0.409,0.708c-5.158,5.172-10.324,10.335-15.489,15.5c-0.138,0.138-0.272,0.281-0.415,0.414
	c-0.75,0.695-1.613,0.496-1.992-0.468c-1.238-3.15-1.745-6.428-1.682-9.8c0.066-3.562,0.718-7.018,1.938-10.364
	c0.119-0.326,0.069-0.531-0.144-0.781c-4.612-5.408-9.214-10.825-13.835-16.226c-0.155-0.181-0.489-0.303-0.736-0.297
	c-2.69,0.066-5.256-0.372-7.546-1.871c-0.454-0.297-0.797-0.764-1.192-1.152c0-0.156,0-0.313,0-0.469
	c0.25-0.317,0.471-0.663,0.755-0.947C6.291,11.905,11.717,6.48,17.145,1.057c0.327-0.327,0.68-0.627,1.021-0.94
	C18.4,0.117,18.635,0.117,18.869,0.117z M3.136,18.37c0.202,0.097,0.391,0.196,0.586,0.282c1.838,0.806,3.772,0.944,5.739,0.784
	c0.556-0.045,0.975,0.102,1.34,0.531c4.992,5.879,9.992,11.752,14.993,17.624c0.367,0.431,0.437,0.881,0.232,1.41
	c-1.68,4.343-2.444,8.83-1.984,13.481c0.144,1.46,0.479,2.901,0.728,4.355c10.714-10.709,21.339-21.329,31.971-31.956
	c-0.128-0.04-0.305-0.102-0.486-0.152c-5.726-1.581-11.328-1.118-16.787,1.121c-0.934,0.383-1.555,0.302-2.312-0.348
	c-5.658-4.86-11.344-9.688-17.037-14.507c-0.536-0.454-0.721-0.932-0.67-1.625c0.069-0.948,0.083-1.911-0.009-2.856
	c-0.117-1.196-0.502-2.332-1.078-3.372C13.276,8.229,8.226,13.279,3.136,18.37z"/>
</svg>
