<?xml version="1.0" encoding="utf-8"?>
<!-- Generator: Adobe Illustrator 17.0.0, SVG Export Plug-In . SVG Version: 6.00 Build 0)  -->
<!DOCTYPE svg PUBLIC "-//W3C//DTD SVG 1.1//EN" "http://www.w3.org/Graphics/SVG/1.1/DTD/svg11.dtd">
<svg version="1.1" id="Layer_1" xmlns="http://www.w3.org/2000/svg" xmlns:xlink="http://www.w3.org/1999/xlink" x="0px" y="0px"
	 width="60px" height="60px" viewBox="0 0 60 60" enable-background="new 0 0 60 60" xml:space="preserve">
<g>
	<path d="M28.875,0.058c0.833,0,1.667,0,2.5,0c0.136,0.04,0.269,0.1,0.407,0.118c7.712,1.009,12.469,9.328,9.411,16.476
		c-0.288,0.674-0.649,1.316-1.003,2.028c3.853-0.527,7.644-1.041,11.433-1.568c1.048-0.146,1.497,0.21,1.5,1.254
		c0.004,0.995,0.001,1.989,0.001,3.015c0.46-0.045,0.851-0.079,1.241-0.122c0.393-0.043,0.786-0.087,1.177-0.142
		c1.18-0.167,1.581,0.173,1.581,1.355c0.001,4.622,0,9.244,0,13.867c0,0.222,0,0.445,0,0.719c0.562,0,1.06,0.033,1.552-0.008
		c0.612-0.051,1.095,0.125,1.449,0.633c0,4.25,0,8.5,0,12.75c-0.355,0.506-0.837,0.683-1.45,0.633
		c-0.507-0.041-1.02-0.008-1.551-0.008c0,1.66,0.004,3.222-0.002,4.783c-0.003,0.805-0.298,1.135-1.093,1.229
		c-2.315,0.273-4.63,0.542-6.946,0.81c-4.858,0.561-9.718,1.116-14.575,1.684c-1.255,0.147-2.506,0.329-3.759,0.495
		c-0.417,0-0.833,0-1.25,0c-0.095-0.036-0.187-0.093-0.284-0.104c-2.522-0.296-5.044-0.588-7.566-0.879
		c-5.727-0.662-11.454-1.321-17.18-1.987c-1.154-0.134-1.344-0.358-1.344-1.497c-0.001-1.493,0-2.986,0-4.533
		c-0.561,0-1.058-0.032-1.55,0.008c-0.612,0.051-1.096-0.125-1.45-0.633c0-4.25,0-8.5,0-12.75c0.352-0.51,0.837-0.682,1.449-0.633
		c0.507,0.041,1.019,0.008,1.552,0.008c0-0.326,0-0.554,0-0.782c0-4.622-0.001-9.244,0.001-13.866c0-1.097,0.423-1.45,1.519-1.306
		c0.801,0.105,1.606,0.188,2.481,0.289c0-1.079-0.007-2.116,0.002-3.152c0.008-0.859,0.474-1.27,1.314-1.156
		c2.576,0.349,5.152,0.708,7.728,1.061c1.282,0.175,2.566,0.344,3.929,0.527c-0.117-0.215-0.182-0.343-0.255-0.466
		c-3.814-6.381-1.01-14.615,5.925-17.302C26.763,0.519,27.837,0.335,28.875,0.058z M5.158,23.18c0,4.692,0,9.307,0,13.913
		c3.688,1.021,5.804,3.37,5.955,6.582c0.072,1.524-0.3,2.932-1.139,4.205c-1.147,1.741-2.791,2.744-4.811,3.113
		c0,1.422,0,2.788,0,4.173c7.988,0.922,15.941,1.841,23.931,2.763c0-10.677,0-21.31,0-31.988
		C21.117,25.022,13.163,24.104,5.158,23.18z M55.083,37.101c0-4.626,0-9.257,0-13.915c-7.998,0.924-15.952,1.843-23.924,2.764
		c0,10.677,0,21.31,0,31.984c8.006-0.924,15.974-1.844,23.931-2.763c0-1.452,0-2.819,0-4.179c-4.012-0.778-5.903-3.949-5.96-6.76
		C49.059,40.73,51.164,38.206,55.083,37.101z M20.124,12.579c0.022,1.935,0.829,4.128,2.449,6.029
		c0.31,0.363,0.659,0.521,1.118,0.575c1.157,0.135,2.309,0.315,3.465,0.459c1.092,0.136,2.199,0.417,3.277,0.335
		c2.071-0.157,4.129-0.508,6.185-0.824c0.354-0.054,0.765-0.252,0.997-0.517c1.988-2.271,2.801-4.92,2.407-7.92
		c-0.683-5.202-5.326-8.989-10.585-8.642C24.245,2.416,20.136,6.806,20.124,12.579z M2.169,39.012c0,3.42,0,6.717,0,10.043
		c0.729,0,1.414,0.016,2.098-0.003c2.537-0.069,4.645-2.071,4.845-4.589c0.202-2.537-1.534-4.857-4.045-5.286
		C4.135,39.017,3.167,39.062,2.169,39.012z M58.113,39.069c-0.815,0-1.582-0.038-2.345,0.007c-2.535,0.148-4.625,2.314-4.632,4.853
		c-0.01,3.376,2.729,5.786,6.977,5.03C58.113,45.694,58.113,42.427,58.113,39.069z M31.145,23.936
		c6.686-0.771,13.312-1.536,19.938-2.3c0-0.846,0-1.623,0-2.423c-6.673,0.909-13.301,1.812-19.938,2.716
		C31.145,22.615,31.145,23.235,31.145,23.936z M9.151,21.627c6.673,0.77,13.294,1.535,19.944,2.303c0-0.7,0-1.338,0-2.004
		c-6.654-0.908-13.283-1.813-19.944-2.723C9.151,20.024,9.151,20.79,9.151,21.627z"/>
	<path d="M34.126,34.052c0-1.27-0.006-2.54,0.002-3.81c0.005-0.765,0.312-1.095,1.061-1.19c5.179-0.653,10.358-1.306,15.537-1.961
		c0.932-0.118,1.394,0.264,1.396,1.192c0.006,2.519,0.005,5.039,0,7.558c-0.002,0.804-0.288,1.126-1.093,1.228
		c-5.199,0.658-10.399,1.314-15.6,1.964c-0.84,0.105-1.296-0.308-1.302-1.171C34.119,36.592,34.126,35.322,34.126,34.052z
		 M36.15,36.923c4.687-0.585,9.32-1.164,13.924-1.739c0-2.046,0-4.007,0-5.988c-4.671,0.586-9.288,1.166-13.924,1.748
		C36.15,32.944,36.15,34.895,36.15,36.923z"/>
</g>
</svg>
