<?xml version="1.0" encoding="utf-8"?>
<!-- Generator: Adobe Illustrator 17.0.0, SVG Export Plug-In . SVG Version: 6.00 Build 0)  -->
<!DOCTYPE svg PUBLIC "-//W3C//DTD SVG 1.1//EN" "http://www.w3.org/Graphics/SVG/1.1/DTD/svg11.dtd">
<svg version="1.1" id="Layer_1" xmlns="http://www.w3.org/2000/svg" xmlns:xlink="http://www.w3.org/1999/xlink" x="0px" y="0px"
	 width="60px" height="60px" viewBox="0 0 60 60" enable-background="new 0 0 60 60" xml:space="preserve">
<g>
	<path d="M0.117,30.234c0.116-0.148,0.244-0.288,0.345-0.446c2.035-3.192,4.081-6.377,6.086-9.588
		c0.392-0.628,0.854-0.849,1.578-0.846c5.448,0.023,10.897,0.008,16.345,0.021c0.425,0.001,0.725-0.116,1.023-0.423
		c1.087-1.122,2.19-2.229,3.314-3.313c0.326-0.314,0.437-0.639,0.435-1.079c-0.014-3.554-0.008-7.108-0.007-10.663
		c0-0.195-0.008-0.392,0.013-0.585c0.057-0.515,0.413-0.849,0.879-0.842c0.463,0.007,0.815,0.346,0.858,0.865
		c0.025,0.309,0.005,0.621,0.005,1.007c0.258,0,0.466,0,0.674,0c2.5,0,4.999,0.003,7.499-0.003c0.448-0.001,0.872,0.032,1.113,0.478
		c0.242,0.45,0.025,0.823-0.225,1.19c-0.385,0.564-0.784,1.121-1.126,1.711c-0.096,0.166-0.1,0.482-0.003,0.647
		c0.365,0.622,0.83,1.186,1.17,1.82c0.165,0.307,0.285,0.798,0.148,1.061c-0.135,0.259-0.62,0.463-0.954,0.468
		c-2.616,0.037-5.233,0.021-7.85,0.022c-0.114,0-0.228,0.012-0.425,0.023c0,1.129-0.014,2.233,0.015,3.336
		c0.004,0.156,0.199,0.322,0.333,0.457c1.142,1.15,2.277,2.308,3.449,3.428c0.222,0.212,0.599,0.371,0.905,0.372
		c5.487,0.022,10.975,0.025,16.463,0.005c0.68-0.002,1.117,0.216,1.484,0.803c2.02,3.225,4.073,6.429,6.117,9.638
		c0.235,0.369,0.478,0.728,0.231,1.189c-0.258,0.48-0.709,0.489-1.167,0.487c-0.487-0.002-0.973,0-1.499,0
		c0,8.176,0,16.312,0,24.541c0.558,0,1.135-0.005,1.712,0.001c0.667,0.007,1.076,0.359,1.06,0.9c-0.016,0.521-0.409,0.85-1.05,0.854
		c-1.269,0.007-2.539,0.002-3.808,0.002c-17.947,0-35.894-0.002-53.84,0.008c-0.547,0-1-0.093-1.296-0.589c0-0.195,0-0.391,0-0.586
		c0.277-0.471,0.688-0.635,1.229-0.597c0.516,0.036,1.036,0.008,1.544,0.008c0-8.223,0-16.364,0-24.541
		c-0.509,0-0.978-0.021-1.443,0.006c-0.538,0.031-0.991-0.101-1.33-0.539C0.117,30.703,0.117,30.469,0.117,30.234z M23.593,55.99
		c0-0.29,0-0.522,0-0.754c0-3.75-0.006-7.499,0.003-11.249c0.004-1.877,1.118-2.991,2.988-2.998
		c2.363-0.009,4.726-0.005,7.089,0.002c0.31,0.001,0.63,0.018,0.926,0.097c1.294,0.346,2.038,1.415,2.04,2.921
		c0.006,3.75,0.002,7.499,0.002,11.249c0,0.229,0,0.459,0,0.704c6.333,0,12.605,0,18.857,0c0-8.183,0-16.316,0-24.492
		c-0.277,0-0.51,0-0.743,0c-3.008,0-6.015-0.017-9.022,0.013c-0.682,0.007-1.166-0.211-1.643-0.692
		c-4.473-4.503-8.967-8.985-13.455-13.473c-0.162-0.162-0.331-0.316-0.518-0.493c-0.185,0.177-0.341,0.32-0.49,0.469
		c-4.516,4.515-9.038,9.025-13.539,13.555c-0.452,0.455-0.919,0.636-1.55,0.631c-3.046-0.023-6.093-0.011-9.14-0.009
		c-0.224,0-0.448,0.021-0.665,0.032c0,8.203,0,16.335,0,24.485C11.017,55.99,17.26,55.99,23.593,55.99z M23.236,21.157
		c-0.209-0.017-0.317-0.034-0.425-0.034c-4.78-0.001-9.561-0.007-14.341,0.017c-0.226,0.001-0.532,0.214-0.663,0.417
		c-1.632,2.52-3.239,5.056-4.851,7.59c-0.097,0.152-0.181,0.312-0.298,0.516c0.194,0.018,0.29,0.035,0.386,0.035
		c3.766,0.002,7.531,0.008,11.297-0.014c0.251-0.001,0.556-0.167,0.742-0.351c2.578-2.554,5.14-5.124,7.705-7.692
		C22.921,21.51,23.042,21.368,23.236,21.157z M37,21.156c0.196,0.213,0.318,0.355,0.45,0.487c2.551,2.553,5.108,5.101,7.65,7.663
		c0.285,0.287,0.57,0.404,0.972,0.403c3.609-0.013,7.219-0.007,10.828-0.009c0.202,0,0.404-0.019,0.686-0.033
		c-0.146-0.244-0.239-0.409-0.341-0.569c-1.59-2.501-3.188-4.996-4.763-7.506c-0.226-0.361-0.476-0.48-0.893-0.478
		c-4.643,0.015-9.287,0.009-13.93,0.01C37.474,21.124,37.288,21.141,37,21.156z M34.84,55.977c0-3.167,0-6.295,0-9.422
		c-1.295,0-2.551,0-3.811,0c0,3.161,0,6.274,0,9.422C32.299,55.977,33.54,55.977,34.84,55.977z M25.395,46.543
		c0,3.169,0,6.297,0,9.421c1.294,0,2.548,0,3.81,0c0-3.161,0-6.273,0-9.421C27.935,46.543,26.695,46.543,25.395,46.543z
		 M37.841,9.947c-0.321-0.483-0.569-0.877-0.837-1.256c-0.309-0.436-0.314-0.853-0.003-1.293c0.277-0.391,0.528-0.8,0.83-1.261
		c-2.316,0-4.542,0-6.785,0c0,1.287,0,2.538,0,3.809C33.306,9.947,35.519,9.947,37.841,9.947z M34.865,44.713
		c0-0.374,0.027-0.704-0.006-1.028c-0.06-0.59-0.411-0.924-1.005-0.927c-2.498-0.011-4.996-0.011-7.494,0.001
		c-0.564,0.003-0.916,0.331-0.978,0.889c-0.038,0.341-0.007,0.69-0.007,1.065C28.547,44.713,31.663,44.713,34.865,44.713z"/>
	<path d="M30.186,25.011c3.632,0.083,6.541,3.061,6.446,6.598c-0.098,3.637-3.081,6.538-6.613,6.433
		c-3.616-0.108-6.482-3.041-6.42-6.57C23.663,27.852,26.642,24.93,30.186,25.011z M30.101,26.772
		c-2.61,0.015-4.727,2.132-4.739,4.74c-0.012,2.616,2.159,4.787,4.772,4.771c2.629-0.016,4.78-2.197,4.739-4.803
		C34.831,28.859,32.7,26.757,30.101,26.772z"/>
	<path d="M38.64,38.649c0-0.975-0.009-1.949,0.003-2.924c0.011-0.879,0.42-1.298,1.288-1.307c1.286-0.013,2.573-0.012,3.859,0
		c0.85,0.008,1.296,0.449,1.302,1.307c0.013,1.988,0.011,3.976,0.001,5.964c-0.004,0.711-0.334,1.049-1.041,1.056
		c-1.462,0.015-2.924,0.015-4.385,0c-0.715-0.007-1.017-0.33-1.024-1.056C38.633,40.676,38.64,39.663,38.64,38.649z M40.432,38.124
		c0.958,0,1.897,0,2.855,0c0-0.66,0-1.285,0-1.917c-0.975,0-1.899,0-2.855,0C40.432,36.837,40.432,37.433,40.432,38.124z
		 M43.311,39.971c-0.984,0-1.924,0-2.877,0c0,0.343,0,0.645,0,0.972c0.973,0,1.913,0,2.877,0
		C43.311,40.614,43.311,40.327,43.311,39.971z"/>
	<path d="M21.595,38.737c0,0.955,0.005,1.91-0.001,2.865c-0.005,0.836-0.296,1.141-1.114,1.147c-1.403,0.009-2.807,0.009-4.21,0
		c-0.816-0.005-1.127-0.323-1.129-1.146c-0.006-1.93-0.007-3.859,0-5.789c0.004-0.971,0.425-1.39,1.391-1.396
		c1.228-0.008,2.456-0.007,3.684,0c0.976,0.006,1.37,0.407,1.378,1.396C21.6,36.788,21.595,37.762,21.595,38.737z M19.782,38.126
		c0-0.671,0-1.299,0-1.913c-0.977,0-1.902,0-2.852,0c0,0.653,0,1.264,0,1.913C17.887,38.126,18.811,38.126,19.782,38.126z
		 M16.924,40.952c0.996,0,1.921,0,2.864,0c0-0.351,0-0.666,0-0.965c-0.986,0-1.925,0-2.864,0
		C16.924,40.329,16.924,40.616,16.924,40.952z"/>
	<path d="M13.14,38.717c0,0.994,0.007,1.988-0.002,2.983c-0.006,0.717-0.314,1.04-1.034,1.047c-1.462,0.014-2.924,0.015-4.386-0.001
		c-0.704-0.008-1.025-0.35-1.028-1.064c-0.008-1.988-0.01-3.977,0.001-5.965c0.004-0.853,0.447-1.29,1.308-1.297
		c1.287-0.012,2.573-0.013,3.86,0c0.862,0.009,1.272,0.437,1.28,1.315C13.147,36.728,13.14,37.723,13.14,38.717z M8.477,38.126
		c0.965,0,1.908,0,2.858,0c0-0.665,0-1.295,0-1.917c-0.974,0-1.901,0-2.858,0C8.477,36.859,8.477,37.473,8.477,38.126z M8.48,40.945
		c0.976,0,1.918,0,2.869,0c0-0.346,0-0.65,0-0.971c-0.974,0-1.915,0-2.869,0C8.48,40.318,8.48,40.62,8.48,40.945z"/>
	<path d="M53.547,38.676c0,0.994,0.006,1.988-0.002,2.983c-0.006,0.748-0.323,1.082-1.065,1.089c-1.442,0.013-2.885,0.013-4.328,0
		c-0.752-0.007-1.054-0.325-1.056-1.083c-0.006-1.969-0.006-3.938,0-5.907c0.003-0.912,0.413-1.331,1.315-1.339
		c1.267-0.011,2.534-0.011,3.801,0c0.892,0.007,1.324,0.443,1.332,1.334C53.554,36.726,53.547,37.701,53.547,38.676z M51.767,36.215
		c-0.989,0-1.929,0-2.88,0c0,0.658,0,1.271,0,1.907c0.976,0,1.918,0,2.88,0C51.767,37.479,51.767,36.88,51.767,36.215z
		 M51.77,39.976c-0.999,0-1.941,0-2.88,0c0,0.349,0,0.651,0,0.965c0.98,0,1.922,0,2.88,0C51.77,40.606,51.77,40.317,51.77,39.976z"
		/>
	<path d="M53.547,49.36c0,0.878,0.007,1.755-0.002,2.633c-0.007,0.751-0.325,1.077-1.066,1.081c-1.443,0.009-2.886,0.009-4.33,0
		c-0.748-0.004-1.051-0.318-1.053-1.081c-0.006-1.755-0.006-3.51,0-5.266c0.003-0.732,0.3-1.036,1.024-1.041
		c1.463-0.009,2.925-0.01,4.388,0c0.717,0.005,1.028,0.321,1.037,1.041C53.555,47.604,53.547,48.482,53.547,49.36z M51.773,50.3
		c-0.996,0-1.936,0-2.874,0c0,0.353,0,0.669,0,0.971c0.986,0,1.925,0,2.874,0C51.773,50.934,51.773,50.646,51.773,50.3z
		 M51.742,48.473c0-0.365,0-0.68,0-0.981c-0.986,0-1.925,0-2.853,0c0,0.349,0,0.652,0,0.981
		C49.847,48.473,50.77,48.473,51.742,48.473z"/>
	<path d="M13.141,49.454c0,0.858,0.007,1.716-0.002,2.574c-0.007,0.721-0.316,1.04-1.031,1.044c-1.463,0.01-2.925,0.01-4.388,0
		c-0.701-0.005-1.025-0.341-1.029-1.058c-0.008-1.755-0.008-3.51,0-5.266c0.003-0.753,0.313-1.06,1.072-1.064
		c1.443-0.008,2.886-0.008,4.33,0c0.754,0.004,1.042,0.306,1.048,1.078C13.146,47.66,13.141,48.557,13.141,49.454z M8.497,50.294
		c0,0.322,0,0.651,0,0.983c0.973,0,1.913,0,2.855,0c0-0.347,0-0.65,0-0.983C10.398,50.294,9.473,50.294,8.497,50.294z M8.474,48.455
		c1.001,0,1.939,0,2.875,0c0-0.349,0-0.652,0-0.974c-0.971,0-1.91,0-2.875,0C8.474,47.818,8.474,48.119,8.474,48.455z"/>
	<path d="M38.64,49.334c0-0.858-0.006-1.716,0.002-2.574c0.007-0.773,0.294-1.071,1.05-1.075c1.443-0.008,2.886-0.008,4.329,0
		c0.757,0.004,1.069,0.31,1.073,1.067c0.01,1.755,0.011,3.51-0.001,5.265c-0.005,0.737-0.341,1.054-1.093,1.057
		c-1.423,0.007-2.847,0.007-4.27,0c-0.784-0.004-1.081-0.308-1.087-1.108C38.634,51.089,38.64,50.212,38.64,49.334z M43.317,50.311
		c-1.004,0-1.947,0-2.877,0c0,0.352,0,0.655,0,0.959c0.982,0,1.924,0,2.877,0C43.317,50.932,43.317,50.643,43.317,50.311z
		 M43.312,47.485c-0.984,0-1.926,0-2.88,0c0,0.343,0,0.646,0,0.974c0.973,0,1.915,0,2.88,0
		C43.312,48.129,43.312,47.841,43.312,47.485z"/>
	<path d="M21.594,49.414c0,0.877,0.009,1.755-0.003,2.632c-0.01,0.715-0.324,1.023-1.049,1.027c-1.443,0.008-2.886,0.008-4.329,0
		c-0.743-0.004-1.068-0.327-1.072-1.078c-0.009-1.755-0.01-3.51,0-5.265c0.004-0.726,0.318-1.04,1.035-1.045
		c1.462-0.01,2.925-0.009,4.387,0c0.727,0.005,1.019,0.303,1.028,1.037C21.602,47.62,21.594,48.517,21.594,49.414z M19.808,50.301
		c-0.97,0-1.913,0-2.86,0c0,0.356,0,0.672,0,0.981c0.979,0,1.908,0,2.86,0C19.808,50.941,19.808,50.636,19.808,50.301z
		 M16.922,48.468c0.994,0,1.921,0,2.868,0c0-0.35,0-0.666,0-0.969c-0.986,0-1.927,0-2.868,0
		C16.922,47.841,16.922,48.129,16.922,48.468z"/>
	<path d="M29.237,30.654c0-0.664-0.011-1.226,0.003-1.788c0.016-0.651,0.34-1.021,0.87-1.025c0.534-0.004,0.872,0.363,0.884,1.011
		c0.015,0.857,0.019,1.714-0.003,2.571c-0.016,0.662-0.318,0.963-0.981,0.978c-0.876,0.02-1.753,0.02-2.629-0.001
		c-0.597-0.015-0.957-0.375-0.951-0.885c0.006-0.509,0.37-0.842,0.973-0.857C27.983,30.643,28.565,30.654,29.237,30.654z"/>
</g>
</svg>
