<?xml version="1.0" encoding="utf-8"?>
<!-- Generator: Adobe Illustrator 17.0.0, SVG Export Plug-In . SVG Version: 6.00 Build 0)  -->
<!DOCTYPE svg PUBLIC "-//W3C//DTD SVG 1.1//EN" "http://www.w3.org/Graphics/SVG/1.1/DTD/svg11.dtd">
<svg version="1.1" id="Layer_1" xmlns="http://www.w3.org/2000/svg" xmlns:xlink="http://www.w3.org/1999/xlink" x="0px" y="0px"
	 width="60px" height="60px" viewBox="0 0 60 60" enable-background="new 0 0 60 60" xml:space="preserve">
<g>
	<path d="M3.111,11.57C3.4,10.854,3.59,10.075,3.999,9.436c0.88-1.373,2.194-2.123,3.839-2.229c0.514-0.033,1.033-0.005,1.63-0.005
		c0-0.372-0.006-0.679,0.001-0.986c0.028-1.243,0.873-2.084,2.112-2.101c0.445-0.006,0.89-0.004,1.335-0.001
		c1.298,0.011,2.114,0.805,2.162,2.104c0.011,0.293,0.002,0.586,0.002,0.921c1.863,0,3.668,0,5.53,0
		c0-0.354-0.015-0.685,0.003-1.014c0.062-1.185,0.902-1.991,2.091-2.01c0.464-0.008,0.927-0.006,1.391,0
		c1.23,0.015,2.061,0.804,2.129,2.028c0.017,0.312,0.003,0.626,0.003,0.989c1.846,0,3.649,0,5.527,0c0-0.315-0.01-0.625,0.002-0.933
		c0.05-1.261,0.877-2.069,2.13-2.084c0.464-0.005,0.927-0.007,1.391,0c1.21,0.02,2.049,0.846,2.094,2.065
		c0.012,0.312,0.002,0.625,0.002,0.968c1.846,0,3.637,0,5.531,0c0-0.317-0.008-0.623,0.001-0.927
		c0.042-1.299,0.859-2.095,2.157-2.107c0.445-0.004,0.89-0.006,1.335,0.001c1.24,0.017,2.086,0.857,2.115,2.099
		c0.007,0.295,0.001,0.591,0.001,0.969c0.733,0,1.43-0.011,2.128,0.002c2.621,0.047,4.608,1.725,5.059,4.277
		c0.051,0.29,0.062,0.59,0.062,0.885c0.004,5.378,0.003,10.756,0.002,16.135c0,0.13,0.008,0.262-0.014,0.389
		c-0.073,0.419-0.342,0.666-0.751,0.701c-0.413,0.035-0.721-0.176-0.845-0.578c-0.058-0.189-0.056-0.402-0.056-0.604
		c-0.003-2.708-0.002-5.415-0.002-8.123c0-0.202,0-0.405,0-0.649c-16.431,0-32.833,0-49.315,0c0,0.2,0,0.414,0,0.628
		c0,7.641,0,15.282,0,22.922c0,0.13-0.005,0.26,0.001,0.389c0.021,0.47-0.037,0.899-0.551,1.098
		c-0.525,0.203-0.828-0.122-1.119-0.474C3.111,33.311,3.111,22.44,3.111,11.57z M15.065,8.889c0,0.528,0.032,0.994-0.006,1.453
		c-0.09,1.081-0.894,1.838-1.978,1.881c-0.5,0.02-1.001,0.013-1.502,0.003c-1.24-0.023-2.083-0.867-2.109-2.109
		C9.46,9.715,9.467,9.311,9.467,8.871c-0.577,0-1.093-0.034-1.604,0.006c-1.627,0.128-2.999,1.45-3.056,3.077
		c-0.067,1.944-0.011,3.893-0.005,5.84c0,0.028,0.042,0.056,0.051,0.067c16.415,0,32.816,0,49.231,0c0-2.01,0.042-3.977-0.014-5.94
		c-0.04-1.407-1.171-2.732-2.594-2.958c-0.949-0.151-1.941-0.029-2.964-0.029c0,0.396,0.008,0.801-0.002,1.205
		c-0.03,1.212-0.87,2.057-2.075,2.087c-0.445,0.011-0.89,0.006-1.335,0.002c-1.356-0.012-2.169-0.819-2.197-2.185
		C42.895,9.662,42.902,9.28,42.902,8.9c-1.892,0-3.694,0-5.531,0c0,0.456,0.013,0.863-0.002,1.268
		c-0.047,1.213-0.889,2.035-2.105,2.059c-0.445,0.009-0.89,0.006-1.335,0.001c-1.315-0.015-2.142-0.834-2.175-2.157
		c-0.009-0.384-0.001-0.769-0.001-1.179c-1.868,0-3.67,0-5.523,0c0,0.446,0.014,0.851-0.003,1.255
		c-0.051,1.252-0.886,2.062-2.139,2.081c-0.426,0.007-0.853,0.005-1.28,0.001c-1.343-0.013-2.179-0.845-2.199-2.192
		c-0.006-0.382-0.001-0.764-0.001-1.186c-1.768,0-3.453-0.001-5.138,0.001C15.363,8.852,15.256,8.871,15.065,8.889z M13.412,8.193
		c0-0.629-0.002-1.258,0.001-1.887c0.001-0.367-0.165-0.542-0.544-0.527c-0.369,0.015-0.741,0.02-1.11-0.001
		c-0.455-0.026-0.637,0.166-0.628,0.618c0.017,0.851-0.002,1.702,0.006,2.553c0.018,1.872-0.274,1.585,1.738,1.613
		c0.378,0.005,0.54-0.173,0.538-0.538C13.409,9.414,13.412,8.804,13.412,8.193z M22.276,8.143c0,0.611,0.008,1.221-0.003,1.832
		c-0.008,0.426,0.183,0.608,0.606,0.589c0.351-0.016,0.704-0.019,1.054,0.001c0.453,0.026,0.639-0.172,0.632-0.621
		c-0.014-0.832,0.003-1.665-0.005-2.498c-0.018-1.96,0.26-1.628-1.741-1.665c-0.377-0.007-0.545,0.164-0.544,0.531
		C22.278,6.921,22.276,7.532,22.276,8.143z M35.705,8.168c0-0.241,0.002-0.481,0-0.722c-0.022-1.956,0.266-1.633-1.74-1.663
		c-0.018,0-0.045-0.008-0.054,0.002c-0.164,0.156-0.461,0.309-0.466,0.471c-0.039,1.276-0.039,2.553,0,3.829
		c0.005,0.163,0.285,0.42,0.47,0.453c0.395,0.07,0.811,0.012,1.217,0.025c0.399,0.013,0.578-0.167,0.574-0.563
		C35.699,9.389,35.704,8.778,35.705,8.168z M46.844,8.169c0-0.24,0.003-0.481,0-0.721c-0.025-1.953,0.282-1.636-1.735-1.665
		c-0.018,0-0.037,0.001-0.055,0c-0.328-0.014-0.479,0.159-0.479,0.471c-0.003,1.276-0.002,2.553,0,3.829
		c0.001,0.314,0.158,0.478,0.48,0.477c0.407-0.002,0.814-0.009,1.221,0.003c0.396,0.011,0.579-0.161,0.572-0.562
		C46.836,9.39,46.843,8.779,46.844,8.169z"/>
	<path d="M60.097,49.078c-0.103,0.487-0.182,0.98-0.311,1.459c-1.205,4.475-4.065,7.356-8.587,8.273
		c-4.482,0.909-8.208-0.628-11.046-4.229c-0.245-0.31-0.483-0.431-0.875-0.43c-7.455,0.011-14.91,0.009-22.365,0.006
		c-0.258,0-0.524,0-0.772-0.06c-0.415-0.101-0.611-0.406-0.589-0.828c0.022-0.424,0.255-0.692,0.678-0.755
		c0.218-0.033,0.444-0.022,0.666-0.022c7.084-0.001,14.168-0.001,21.252-0.001c0.216,0,0.432,0,0.697,0
		c-1.721-4.751-1.076-9.032,2.587-12.509c3.672-3.485,7.984-3.869,12.632-1.919c0.01-0.201,0.028-0.394,0.028-0.586
		c0.002-1.595,0.004-3.19,0-4.784c-0.001-0.456,0.163-0.857,0.625-0.918c0.278-0.036,0.645,0.118,0.866,0.309
		c0.153,0.133,0.17,0.474,0.172,0.723c0.013,1.966,0.014,3.931,0,5.897c-0.002,0.342,0.085,0.571,0.359,0.803
		c2.183,1.849,3.487,4.192,3.88,7.034c0.02,0.142,0.067,0.281,0.101,0.421C60.097,47.668,60.097,48.373,60.097,49.078z
		 M49.036,38.592c-5.178-0.007-9.401,4.18-9.419,9.338c-0.018,5.198,4.177,9.441,9.362,9.468c5.175,0.027,9.434-4.203,9.448-9.383
		C58.441,42.82,54.235,38.599,49.036,38.592z"/>
	<path d="M3.111,47.409c0.275-0.376,0.589-0.688,1.107-0.499c0.51,0.186,0.571,0.614,0.566,1.089
		c-0.012,1.167-0.004,2.333-0.004,3.5c0,0.908,0.08,0.992,0.97,0.992c2.13,0.001,4.259,0,6.389,0.001
		c0.185,0,0.373-0.007,0.554,0.021c0.422,0.066,0.657,0.33,0.681,0.752c0.024,0.419-0.17,0.722-0.583,0.832
		c-0.211,0.056-0.439,0.06-0.66,0.06c-2.111,0.004-4.223-0.03-6.333,0.014c-1.332,0.028-2.249-0.468-2.687-1.755
		C3.111,50.748,3.111,49.078,3.111,47.409z"/>
	<path d="M25.252,41.715c0.181-0.265,0.282-0.474,0.436-0.629c2.946-2.956,5.892-5.912,8.853-8.853
		c1.39-1.381,3.415-1.395,4.728-0.069c1.288,1.3,1.271,3.336-0.068,4.694c-1.72,1.743-3.46,3.465-5.191,5.196
		c-2.098,2.098-4.195,4.199-6.296,6.295c-1.572,1.568-3.478,1.569-5.047,0.005c-1.366-1.362-2.74-2.716-4.087-4.096
		c-0.952-0.976-1.23-2.151-0.765-3.435c0.466-1.284,1.433-2.006,2.788-2.15c0.993-0.105,1.871,0.217,2.584,0.921
		C23.844,40.243,24.477,40.917,25.252,41.715z M25.228,48.013c0.48-0.314,0.977-0.533,1.338-0.891
		c3.778-3.747,7.535-7.515,11.297-11.279c0.118-0.118,0.238-0.236,0.339-0.368c0.779-1.026,0.18-2.456-1.098-2.605
		c-0.601-0.07-1.061,0.209-1.476,0.625c-3.207,3.217-6.421,6.427-9.634,9.638c-0.614,0.613-0.992,0.614-1.596,0.014
		c-0.776-0.771-1.539-1.555-2.325-2.316c-0.703-0.681-1.699-0.678-2.338-0.018c-0.626,0.647-0.62,1.611,0.055,2.296
		c1.392,1.413,2.789,2.823,4.216,4.2C24.306,47.6,24.747,47.743,25.228,48.013z"/>
	<path d="M11.093,23.681c-0.445,0-0.889,0.01-1.334-0.003c-0.596-0.017-0.97-0.358-0.96-0.854c0.01-0.472,0.375-0.8,0.938-0.807
		c0.908-0.011,1.816-0.012,2.723,0.001c0.542,0.008,0.875,0.318,0.894,0.785c0.021,0.495-0.316,0.832-0.873,0.876
		c-0.037,0.003-0.074,0.002-0.111,0.002C11.945,23.681,11.519,23.681,11.093,23.681z"/>
	<path d="M20.017,22.016c0.463,0,0.926-0.013,1.389,0.003c0.539,0.019,0.859,0.333,0.863,0.812c0.004,0.475-0.316,0.828-0.844,0.84
		c-0.962,0.023-1.926,0.024-2.889-0.003c-0.48-0.013-0.817-0.388-0.823-0.818c-0.006-0.454,0.346-0.811,0.859-0.83
		C19.053,22.002,19.535,22.016,20.017,22.016z"/>
	<path d="M28.947,22.016c0.463,0,0.926-0.014,1.388,0.004c0.537,0.021,0.851,0.34,0.849,0.824c-0.002,0.453-0.308,0.81-0.801,0.823
		c-0.98,0.027-1.963,0.027-2.943,0c-0.48-0.014-0.809-0.396-0.807-0.83c0.002-0.461,0.347-0.786,0.869-0.821
		c0.037-0.002,0.074-0.003,0.111-0.003c0.444,0,0.889,0,1.333,0C28.947,22.014,28.947,22.015,28.947,22.016z"/>
	<path d="M46.799,22.016c0.463,0.001,0.926-0.014,1.388,0.005c0.501,0.021,0.821,0.334,0.841,0.783
		c0.021,0.457-0.318,0.851-0.825,0.865c-0.962,0.026-1.925,0.026-2.887,0.002c-0.523-0.013-0.843-0.375-0.832-0.85
		c0.01-0.481,0.327-0.785,0.872-0.802C45.836,22.003,46.318,22.015,46.799,22.016z"/>
	<path d="M46.794,26.207c0.462,0,0.926-0.021,1.387,0.006c0.526,0.03,0.857,0.38,0.848,0.84c-0.009,0.46-0.346,0.796-0.878,0.806
		c-0.943,0.018-1.887,0.015-2.83-0.001c-0.494-0.008-0.799-0.271-0.835-0.781c-0.033-0.483,0.278-0.828,0.811-0.861
		c0.498-0.03,0.998-0.007,1.498-0.007C46.794,26.209,46.794,26.208,46.794,26.207z"/>
	<path d="M37.8,27.865c-0.444,0-0.888,0.013-1.332-0.003c-0.571-0.021-0.913-0.344-0.909-0.83c0.003-0.465,0.33-0.808,0.865-0.821
		c0.943-0.023,1.887-0.024,2.83,0.001c0.54,0.014,0.853,0.355,0.85,0.83c-0.003,0.478-0.317,0.793-0.861,0.816
		c-0.48,0.021-0.962,0.004-1.443,0.004C37.8,27.864,37.8,27.865,37.8,27.865z"/>
	<path d="M19.985,27.864c-0.463,0-0.926,0.015-1.388-0.004c-0.525-0.022-0.874-0.357-0.882-0.809
		c-0.008-0.45,0.336-0.823,0.855-0.836c0.962-0.024,1.925-0.027,2.887,0.003c0.534,0.017,0.843,0.378,0.809,0.861
		c-0.035,0.511-0.346,0.749-0.837,0.783c-0.037,0.003-0.074,0.004-0.111,0.004c-0.444,0-0.888,0-1.333,0
		C19.985,27.866,19.985,27.865,19.985,27.864z"/>
	<path d="M37.837,22.017c0.481,0,0.963-0.016,1.443,0.005c0.505,0.022,0.81,0.334,0.822,0.795c0.012,0.45-0.293,0.832-0.776,0.847
		c-0.998,0.03-1.999,0.031-2.998-0.001c-0.477-0.015-0.787-0.411-0.77-0.855c0.018-0.451,0.335-0.767,0.834-0.787
		C36.874,22.002,37.356,22.017,37.837,22.017z"/>
	<path d="M28.895,27.86c-0.481,0-0.963,0.02-1.443-0.006c-0.488-0.026-0.814-0.371-0.819-0.809c-0.005-0.435,0.317-0.81,0.804-0.825
		c0.979-0.029,1.961-0.03,2.94-0.002c0.511,0.015,0.801,0.349,0.805,0.811c0.004,0.487-0.299,0.803-0.845,0.828
		c-0.48,0.023-0.962,0.005-1.443,0.005C28.895,27.862,28.895,27.861,28.895,27.86z"/>
	<path d="M11.075,27.865c-0.463,0-0.926,0.015-1.388-0.004c-0.529-0.021-0.875-0.349-0.887-0.803
		c-0.012-0.452,0.328-0.829,0.846-0.843c0.962-0.026,1.926-0.028,2.887,0.001c0.532,0.016,0.841,0.378,0.822,0.856
		c-0.018,0.454-0.323,0.743-0.836,0.789c-0.037,0.003-0.074,0.005-0.111,0.005c-0.444,0-0.889,0-1.333,0
		C11.075,27.866,11.075,27.865,11.075,27.865z"/>
	<path d="M49.036,39.794c4.541,0.014,8.188,3.681,8.176,8.22c-0.012,4.523-3.711,8.197-8.232,8.177
		c-4.515-0.02-8.168-3.724-8.147-8.26C40.852,43.428,44.53,39.78,49.036,39.794z M48.189,41.538
		c-2.937,0.333-5.682,3.126-5.56,5.621c0.202,0,0.404,0,0.606,0c0.204,0,0.408-0.006,0.611,0.004
		c0.551,0.026,0.876,0.313,0.897,0.784c0.022,0.497-0.309,0.844-0.871,0.873c-0.42,0.022-0.842,0.004-1.264,0.004
		c0.116,2.744,2.876,5.476,5.58,5.561c0-0.201,0-0.401,0-0.601c0-0.204-0.006-0.408,0.002-0.612c0.022-0.562,0.345-0.91,0.836-0.908
		c0.489,0.002,0.812,0.352,0.828,0.917c0.011,0.403,0.002,0.807,0.002,1.209c2.553,0.063,5.587-2.99,5.571-5.565
		c-0.404,0-0.808,0.013-1.211-0.003c-0.576-0.023-0.913-0.339-0.916-0.831c-0.003-0.498,0.329-0.81,0.907-0.829
		c0.416-0.013,0.832-0.003,1.251-0.003c-0.241-2.86-3.13-5.71-5.603-5.572c0,0.424,0.015,0.85-0.004,1.273
		c-0.023,0.512-0.379,0.865-0.835,0.861c-0.456-0.003-0.803-0.359-0.824-0.873C48.176,42.427,48.189,42.002,48.189,41.538z"/>
	<path d="M49.854,47.168c0.393,0,0.722-0.017,1.049,0.004c0.477,0.03,0.75,0.307,0.772,0.779c0.022,0.475-0.241,0.808-0.702,0.843
		c-0.679,0.052-1.367,0.05-2.046,0.004c-0.46-0.031-0.722-0.356-0.734-0.827c-0.014-0.554-0.019-1.109,0.001-1.662
		c0.019-0.514,0.372-0.843,0.845-0.833c0.45,0.009,0.777,0.327,0.811,0.814C49.869,46.56,49.854,46.833,49.854,47.168z"/>
</g>
</svg>
