<?xml version="1.0" encoding="utf-8"?>
<!-- Generator: Adobe Illustrator 17.0.0, SVG Export Plug-In . SVG Version: 6.00 Build 0)  -->
<!DOCTYPE svg PUBLIC "-//W3C//DTD SVG 1.1//EN" "http://www.w3.org/Graphics/SVG/1.1/DTD/svg11.dtd">
<svg version="1.1" id="Layer_1" xmlns="http://www.w3.org/2000/svg" xmlns:xlink="http://www.w3.org/1999/xlink" x="0px" y="0px"
	 width="60px" height="60px" viewBox="0 0 60 60" enable-background="new 0 0 60 60" xml:space="preserve">
<path d="M30.828,0.284c0.494,0.17,1.012,0.291,1.477,0.52c1.433,0.704,2.288,1.885,2.68,3.47c1.216,0,2.42,0,3.625,0
	c2.127,0,3.147,0.863,3.5,3.016c0.199,0,0.408,0,0.618,0c2.396,0,4.793-0.003,7.189,0.001c1.928,0.003,3.13,1.204,3.13,3.141
	c0.002,15.527,0.003,31.055,0,46.582c0,1.887-1.225,3.12-3.1,3.121c-13.209,0.003-26.418,0.003-39.627,0
	c-1.882,0-3.109-1.227-3.113-3.107c-0.006-3.195,0.003-6.39-0.006-9.585c-0.001-0.539,0.127-0.969,0.701-1.129
	c0.645-0.18,1.167,0.284,1.172,1.062c0.01,1.5,0.003,3,0.003,4.5c0,1.695-0.003,3.39,0.001,5.085
	c0.002,0.932,0.376,1.305,1.319,1.305c13.151,0.002,26.301,0.002,39.452,0c0.966,0,1.327-0.372,1.327-1.356
	c0.001-15.469,0.001-30.938,0-46.407c0-0.986-0.353-1.337-1.334-1.343c-0.507-0.003-1.013,0-1.52,0.003
	c-0.057,0-0.115,0.017-0.245,0.037C48.068,9.392,48.05,9.596,48.05,9.8c-0.003,1.403,0.004,2.805-0.004,4.208
	c-0.004,0.722-0.327,1.115-0.898,1.131c-0.595,0.016-0.965-0.397-0.97-1.13c-0.01-1.383-0.003-2.766-0.003-4.15
	c0-0.21,0-0.42,0-0.665c-1.386,0-2.719,0-4.12,0c0,0.554,0.001,1.094,0,1.633c-0.002,1.048-0.27,1.326-1.305,1.327
	c-2.611,0.003-5.221,0.001-7.832,0.001c-4.442,0-8.884,0.001-13.326,0c-1.151,0-1.392-0.248-1.393-1.415c0-0.503,0-1.006,0-1.545
	c-1.379,0-2.711,0-4.082,0c0,14.672,0,29.329,0,44.023c10.665,0,21.313,0,32.058,0c0-0.24,0-0.483,0-0.726
	c0-10.91,0-21.82,0.003-32.73c0-0.271-0.002-0.552,0.068-0.809c0.129-0.474,0.483-0.707,0.969-0.658
	c0.455,0.046,0.747,0.317,0.812,0.783c0.029,0.211,0.022,0.428,0.022,0.642c0.001,11.319,0.001,22.639,0.001,33.958
	c0,1.242-0.212,1.453-1.462,1.453c-10.988,0-21.976,0-32.964,0c-1.201,0-1.418-0.22-1.418-1.438c0-14.573,0-29.146,0-43.718
	c0-0.249,0-0.498,0-0.804c-0.774,0-1.491-0.036-2.202,0.012c-0.523,0.035-0.835,0.389-0.912,0.912
	c-0.031,0.21-0.013,0.428-0.013,0.642c0,10.326,0,20.651-0.002,30.977c0,0.233,0.017,0.475-0.039,0.697
	c-0.119,0.47-0.451,0.743-0.937,0.717c-0.506-0.026-0.824-0.321-0.885-0.843c-0.02-0.173-0.01-0.35-0.01-0.526
	c0-10.384-0.001-20.768,0-31.152c0-2.175,1.139-3.317,3.306-3.318c2.338-0.001,4.676,0,7.014,0c0.21,0,0.419,0,0.618,0
	c0.352-2.152,1.372-3.015,3.499-3.016c1.204,0,2.409,0,3.623,0c0.559-2.238,2.009-3.485,4.159-3.99
	C29.893,0.284,30.36,0.284,30.828,0.284z M40.183,10.259c0-0.98,0.004-1.894-0.001-2.807c-0.005-0.92-0.387-1.298-1.326-1.301
	c-1.46-0.005-2.92,0.001-4.38-0.002c-0.979-0.002-1.224-0.234-1.307-1.219c-0.129-1.539-1.463-2.762-3.021-2.772
	c-1.586-0.009-2.938,1.22-3.065,2.787c-0.078,0.966-0.335,1.202-1.322,1.204c-1.48,0.002-2.959-0.004-4.439,0.003
	c-0.685,0.003-1.186,0.303-1.215,0.85c-0.055,1.077-0.016,2.159-0.016,3.257C26.808,10.259,33.459,10.259,40.183,10.259z"/>
<path d="M20.315,41.13c-2.394,0.017-3.779-2.257-2.767-4.314c1.365-2.774,2.763-5.533,4.146-8.298
	c1.905-3.809,3.806-7.62,5.716-11.426c0.715-1.424,1.967-2.055,3.397-1.725c0.982,0.227,1.615,0.865,2.056,1.751
	c1.774,3.571,3.562,7.134,5.346,10.701c1.496,2.992,3.002,5.98,4.486,8.978c0.798,1.613,0.182,3.391-1.38,4.084
	c-1.454,0.646-3.092,0.047-3.85-1.443c-1.137-2.236-2.261-4.479-3.361-6.734c-0.21-0.431-0.46-0.575-0.932-0.569
	c-2.045,0.026-4.09,0.028-6.135-0.002c-0.466-0.007-0.683,0.157-0.88,0.559c-1.104,2.253-2.236,4.492-3.359,6.736
	C22.252,40.52,21.365,41.081,20.315,41.13z M30.094,30.277c1.324,0,2.649,0.02,3.973-0.009c0.649-0.014,1.038,0.236,1.324,0.823
	c1.064,2.185,2.165,4.352,3.252,6.526c0.183,0.365,0.349,0.74,0.556,1.091c0.305,0.516,0.918,0.691,1.413,0.433
	c0.474-0.247,0.679-0.818,0.481-1.358c-0.047-0.127-0.119-0.245-0.18-0.367c-3.227-6.454-6.456-12.907-9.675-19.365
	c-0.241-0.483-0.519-0.884-1.112-0.884c-0.594,0-0.871,0.402-1.111,0.885c-3.22,6.457-6.449,12.91-9.673,19.365
	c-0.086,0.173-0.178,0.35-0.223,0.536c-0.128,0.52,0.065,0.922,0.52,1.183c0.427,0.244,1.005,0.119,1.314-0.277
	c0.118-0.151,0.203-0.331,0.29-0.504c1.211-2.417,2.433-4.828,3.619-7.257c0.286-0.585,0.667-0.844,1.319-0.829
	C27.484,30.297,28.789,30.277,30.094,30.277z"/>
<path d="M30.132,46.129c-2.529,0-5.058,0-7.587,0c-0.175,0-0.352,0.009-0.525-0.013c-0.462-0.06-0.744-0.329-0.798-0.791
	c-0.057-0.483,0.146-0.842,0.621-0.991c0.199-0.063,0.421-0.07,0.632-0.07c5.097-0.004,10.194-0.003,15.291-0.002
	c0.155,0,0.314-0.007,0.466,0.019c0.522,0.087,0.833,0.47,0.809,0.976c-0.024,0.496-0.374,0.838-0.913,0.867
	c-0.31,0.017-0.622,0.006-0.934,0.006C34.839,46.129,32.486,46.129,30.132,46.129z"/>
<path d="M26.586,50.132c-1.44,0-2.88,0.01-4.32-0.004c-0.753-0.007-1.182-0.495-1.03-1.141c0.13-0.551,0.541-0.72,1.055-0.721
	c1.44-0.002,2.88-0.001,4.321-0.001c1.46,0,2.919-0.012,4.379,0.006c0.779,0.009,1.214,0.545,1.016,1.202
	c-0.156,0.514-0.552,0.661-1.042,0.661C29.505,50.131,28.046,50.132,26.586,50.132z"/>
<path d="M40.096,19.186c-0.13,0.779,0.277,1.885-0.934,1.915c-1.315,0.032-0.858-1.15-1.01-1.902
	c-0.723-0.201-1.935,0.313-1.919-0.999c0.016-1.248,1.162-0.815,1.957-0.972c0-0.325-0.012-0.65,0.003-0.974
	c0.025-0.579,0.427-0.985,0.946-0.974c0.496,0.01,0.884,0.401,0.916,0.949c0.019,0.325,0.003,0.652,0.003,0.998
	c0.785,0.165,1.97-0.278,1.957,1.007C42.003,19.483,40.842,19.024,40.096,19.186z"/>
<path d="M31.06,4.753c0,0.155,0.009,0.31-0.002,0.464c-0.041,0.557-0.404,0.917-0.922,0.922c-0.519,0.005-0.902-0.351-0.938-0.902
	c-0.021-0.328-0.018-0.658-0.003-0.987c0.028-0.59,0.405-0.959,0.95-0.949c0.521,0.009,0.875,0.366,0.913,0.929
	C31.07,4.404,31.06,4.579,31.06,4.753z"/>
<path d="M30.096,28.133c-0.721,0-1.442,0.015-2.162-0.004c-0.793-0.022-1.217-0.657-0.876-1.368
	c0.723-1.508,1.469-3.007,2.245-4.488c0.369-0.705,1.278-0.704,1.648,0.001c0.777,1.481,1.523,2.979,2.245,4.488
	c0.34,0.71-0.087,1.346-0.879,1.367C31.577,28.148,30.836,28.133,30.096,28.133z M30.866,26.246
	c-0.265-0.508-0.485-0.929-0.753-1.441c-0.27,0.547-0.478,0.969-0.711,1.441C29.912,26.246,30.332,26.246,30.866,26.246z"/>
</svg>
