<?xml version="1.0" encoding="utf-8"?>
<!-- Generator: Adobe Illustrator 17.0.0, SVG Export Plug-In . SVG Version: 6.00 Build 0)  -->
<!DOCTYPE svg PUBLIC "-//W3C//DTD SVG 1.1//EN" "http://www.w3.org/Graphics/SVG/1.1/DTD/svg11.dtd">
<svg version="1.1" id="Layer_1" xmlns="http://www.w3.org/2000/svg" xmlns:xlink="http://www.w3.org/1999/xlink" x="0px" y="0px"
	 width="60px" height="60px" viewBox="0 0 60 60" enable-background="new 0 0 60 60" xml:space="preserve">
<g>
	<path d="M60.125,5.75c0,16.25,0,32.5,0,48.75c-0.044,0.132-0.098,0.262-0.13,0.397c-0.586,2.448-2.056,4.099-4.44,4.922
		c-0.346,0.119-0.703,0.205-1.055,0.306c-16.25,0-32.5,0-48.75,0c-0.132-0.044-0.262-0.097-0.397-0.13
		c-2.421-0.581-4.069-2.027-4.9-4.381c-0.129-0.364-0.22-0.742-0.328-1.114c0-16.25,0-32.5,0-48.75
		c0.044-0.133,0.099-0.263,0.129-0.398C0.64,3.618,1.519,2.181,3.038,1.258C3.866,0.755,4.841,0.495,5.75,0.125
		c16.25,0,32.5,0,48.75,0c0.133,0.044,0.262,0.1,0.398,0.129c1.714,0.376,3.139,1.243,4.06,2.732
		C59.478,3.826,59.744,4.823,60.125,5.75z M2.74,13.186c0,0.26,0,0.465,0,0.67c0,13.143-0.001,26.286,0.001,39.429
		c0,2.631,1.605,4.225,4.253,4.225c15.413,0.002,30.827,0.001,46.24,0c2.687,0,4.275-1.585,4.276-4.266
		C57.511,40.122,57.51,27,57.51,13.878c0-0.221,0-0.442,0-0.692C39.232,13.186,21.036,13.186,2.74,13.186z M2.768,10.51
		c18.271,0,36.48,0,54.742,0c0-1.249,0.002-2.453-0.001-3.657c-0.001-0.25,0.003-0.502-0.03-0.748
		c-0.274-2.009-1.938-3.363-4.145-3.364C40.797,2.739,28.261,2.74,15.725,2.74c-3.061,0-6.122-0.015-9.183,0.01
		C4.638,2.766,2.95,4.225,2.792,6.105C2.67,7.548,2.768,9.01,2.768,10.51z"/>
	<path d="M44.48,30.123c0.001,7.883-6.472,14.357-14.355,14.357c-7.884,0-14.356-6.474-14.354-14.357
		c0.002-7.89,6.465-14.353,14.355-14.353C38.015,15.77,44.478,22.232,44.48,30.123z M39.622,36.908
		c3.516-4.755,2.916-11.75-2.045-15.841c-4.959-4.09-12.205-3.439-16.379,1.444c-4.043,4.73-3.265,11.121-0.532,14.333
		c1.232-2.013,2.937-3.491,5.083-4.477c-3.298-3.315-2.321-7.499-0.119-9.57c2.483-2.336,6.334-2.38,8.86-0.125
		c2.204,1.967,3.438,6.213,0.017,9.704C36.657,33.355,38.354,34.842,39.622,36.908z M37.741,38.932
		c-1.477-3.165-4.834-5.169-8.131-4.879c-3.212,0.283-6.386,2.502-7.058,4.935C26.487,42.654,34.03,42.639,37.741,38.932z
		 M34.023,27.516c0-2.159-1.717-3.891-3.867-3.901c-2.19-0.011-3.931,1.717-3.93,3.9c0.001,2.163,1.707,3.884,3.867,3.901
		C32.278,31.432,34.023,29.701,34.023,27.516z"/>
	<path d="M20.984,47.095c2.082,0,4.164-0.003,6.247,0.001c1.133,0.003,1.586,0.452,1.593,1.593c0.009,1.541,0.01,3.082,0,4.622
		c-0.007,1.133-0.467,1.584-1.604,1.584c-4.144,0.003-8.287,0.003-12.431,0c-1.171-0.001-1.623-0.453-1.628-1.627
		c-0.006-1.52-0.006-3.04,0-4.56c0.005-1.17,0.455-1.611,1.639-1.613C16.861,47.092,18.923,47.095,20.984,47.095z M15.803,52.248
		c3.476,0,6.915,0,10.37,0c0-0.862,0-1.679,0-2.495c-3.487,0-6.925,0-10.37,0C15.803,50.615,15.803,51.417,15.803,52.248z"/>
	<path d="M39.228,54.897c-2.061,0-4.123,0.003-6.184-0.001c-1.148-0.002-1.609-0.444-1.617-1.57c-0.011-1.562-0.011-3.123,0-4.685
		c0.008-1.091,0.474-1.543,1.577-1.544c4.164-0.004,8.329-0.004,12.493,0c1.127,0.001,1.585,0.461,1.591,1.599
		c0.008,1.52,0.006,3.04,0.001,4.56c-0.005,1.201-0.455,1.64-1.677,1.641C43.351,54.899,41.289,54.897,39.228,54.897z
		 M34.061,49.727c0,0.877,0,1.679,0,2.523c3.473,0,6.912,0,10.381,0c0-0.853,0-1.672,0-2.523
		C40.974,49.727,37.549,49.727,34.061,49.727z"/>
	<path d="M17.085,5.36c0.732,0.002,1.302,0.579,1.291,1.306c-0.011,0.721-0.612,1.299-1.329,1.279
		c-0.686-0.019-1.262-0.602-1.27-1.286C15.767,5.952,16.366,5.357,17.085,5.36z"/>
	<path d="M5.361,6.619C5.373,5.886,5.949,5.34,6.689,5.36c0.699,0.019,1.254,0.586,1.256,1.282c0.002,0.713-0.598,1.31-1.31,1.302
		C5.914,7.937,5.348,7.349,5.361,6.619z"/>
	<path d="M13.149,6.67c-0.011,0.723-0.61,1.299-1.324,1.275c-0.695-0.024-1.247-0.595-1.25-1.292
		c-0.004-0.732,0.563-1.295,1.299-1.292C12.611,5.364,13.16,5.928,13.149,6.67z"/>
</g>
</svg>
