<?xml version="1.0" encoding="utf-8"?>
<!-- Generator: Adobe Illustrator 17.0.0, SVG Export Plug-In . SVG Version: 6.00 Build 0)  -->
<!DOCTYPE svg PUBLIC "-//W3C//DTD SVG 1.1//EN" "http://www.w3.org/Graphics/SVG/1.1/DTD/svg11.dtd">
<svg version="1.1" id="Layer_1" xmlns="http://www.w3.org/2000/svg" xmlns:xlink="http://www.w3.org/1999/xlink" x="0px" y="0px"
	 width="60px" height="60px" viewBox="0 0 60 60" enable-background="new 0 0 60 60" xml:space="preserve">
<path d="M0.117,50.748c0-7.618,0-15.236,0-22.854c0.038-0.128,0.092-0.253,0.111-0.383c0.26-1.714,0.917-3.258,1.973-4.632
	c0.528-0.687,0.925-0.759,1.65-0.308c0.337,0.21,0.672,0.423,1.073,0.676c0-0.349,0-0.583,0-0.817c0-6.21,0-12.42,0-18.63
	c0-1.621,0.838-2.459,2.443-2.459c14.685,0.001,29.37,0.001,44.056,0c1.772,0,2.575,0.796,2.575,2.569c0,6.464,0,12.928,0,19.392
	c0,0.224,0,0.447,0,0.783c0.855-0.55,1.602-1.036,2.354-1.512c0.698-0.442,1.09-0.382,1.621,0.257
	c1.414,1.7,2.142,3.659,2.145,5.869c0.008,6.835,0.004,13.67-0.006,20.505c-0.001,0.721-0.022,1.448-0.116,2.161
	c-0.433,3.262-2.085,5.621-5.199,6.852c-1.401,0.554-2.875,0.697-4.368,0.697c-13.553,0-27.105,0.001-40.658-0.003
	c-0.605,0-1.211-0.032-1.813-0.083c-3.688-0.311-6.427-2.583-7.41-6.153C0.374,52.039,0.259,51.39,0.117,50.748z M52.032,3.359
	c-0.282-0.019-0.511-0.046-0.74-0.047c-1.133-0.005-2.265-0.002-3.398-0.002c-13.397,0-26.793,0-40.19,0
	c-0.806,0-0.807,0.001-0.806,0.794c0.005,6.64,0.014,13.279,0.009,19.919c0,0.365,0.084,0.595,0.411,0.807
	c7.474,4.829,14.94,9.669,22.401,14.517c0.301,0.195,0.509,0.219,0.825,0.013c6.999-4.557,14.005-9.103,21.018-13.638
	c0.356-0.23,0.48-0.467,0.479-0.888c-0.014-6.952-0.01-13.904-0.01-20.857C52.032,3.786,52.032,3.596,52.032,3.359z M3.177,53.792
	c0.57,0.991,1.309,1.715,2.255,2.234c1.327,0.728,2.771,0.894,4.249,0.895c13.515,0.001,27.029,0.002,40.544-0.003
	c0.584,0,1.176,0.002,1.751-0.082c1.984-0.289,3.569-1.262,4.816-2.915c-7.012-5.279-13.993-10.535-20.987-15.801
	c-1.698,1.099-3.377,2.167-5.033,3.269c-0.527,0.351-0.967,0.361-1.498,0.006c-1.557-1.041-3.144-2.037-4.706-3.072
	c-0.338-0.224-0.56-0.25-0.912,0.016c-4.712,3.576-9.439,7.131-14.163,10.691C7.406,50.605,5.319,52.178,3.177,53.792z
	 M56.876,24.639C50.509,28.769,44.194,32.865,37.818,37c6.676,5.023,13.306,10.012,20.062,15.095
	c0.091-0.868,0.226-1.561,0.228-2.255c0.019-7.071,0.025-14.142,0.013-21.212C58.118,27.214,57.696,25.903,56.876,24.639z
	 M2.44,51.926c6.703-5.054,13.269-10.004,19.903-15.006c-6.349-4.114-12.623-8.18-18.937-12.271
	c-0.851,1.393-1.247,2.843-1.244,4.39c0.01,7.047,0.033,14.094,0.068,21.141C2.232,50.719,2.356,51.257,2.44,51.926z"/>
<path d="M32.992,21.221c-1.282,0.938-2.629,1.219-4.097,0.802c-2.478-0.704-3.892-3.105-3.468-5.881
	c0.347-2.274,2.457-3.999,4.822-3.943c2.565,0.06,4.598,2.155,4.632,4.791c0.016,1.25-0.011,2.5,0.016,3.749
	c0.006,0.265,0.164,0.527,0.252,0.79c0.258-0.113,0.569-0.169,0.764-0.35c0.894-0.832,1.194-1.958,1.333-3.107
	c0.431-3.565-1.798-6.839-5.253-7.786c-3.378-0.926-6.971,0.751-8.391,4.003c-1.134,2.598-0.835,5.11,0.923,7.33
	c1.852,2.34,4.348,3.117,7.263,2.596c0.821-0.147,1.325,0.225,1.271,0.971c-0.035,0.482-0.339,0.712-0.777,0.826
	c-4.961,1.291-10.197-2.082-11.075-7.135c-0.857-4.935,2.268-9.533,7.151-10.522c4.822-0.976,9.544,2.139,10.612,7.023
	c0.473,2.163,0.167,4.256-0.889,6.182c-0.597,1.089-1.52,1.898-2.891,1.879C33.919,23.422,33.242,22.742,32.992,21.221z
	 M32.993,17.226c-0.005-1.69-1.322-3.105-2.877-3.091c-1.567,0.014-2.808,1.406-2.804,3.144c0.004,1.668,1.26,3.022,2.792,3.011
	C31.714,20.28,32.998,18.918,32.993,17.226z"/>
</svg>
