<?xml version="1.0" encoding="utf-8"?>
<!-- Generator: Adobe Illustrator 17.0.0, SVG Export Plug-In . SVG Version: 6.00 Build 0)  -->
<!DOCTYPE svg PUBLIC "-//W3C//DTD SVG 1.1//EN" "http://www.w3.org/Graphics/SVG/1.1/DTD/svg11.dtd">
<svg version="1.1" id="Layer_1" xmlns="http://www.w3.org/2000/svg" xmlns:xlink="http://www.w3.org/1999/xlink" x="0px" y="0px"
	 width="60px" height="60px" viewBox="0 0 60 60" enable-background="new 0 0 60 60" xml:space="preserve">
<path d="M0.947,17.018c0.328-0.236,0.625-0.546,0.989-0.697c9.098-3.781,18.205-7.541,27.301-11.325
	c0.608-0.253,1.12-0.264,1.731-0.01C40.03,8.753,49.101,12.5,58.17,16.252c0.14,0.058,0.277,0.125,0.417,0.181
	c0.408,0.164,0.658,0.457,0.667,0.901c0.01,0.471-0.246,0.777-0.674,0.954c-1.348,0.558-2.695,1.119-4.043,1.678
	c-2.748,1.139-5.491,2.291-8.25,3.402c-0.482,0.194-0.71,0.419-0.636,0.947c0.043,0.314,0.008,0.638,0.008,1.028
	c0.2-0.059,0.339-0.086,0.467-0.139c3.575-1.47,7.147-2.947,10.726-4.408c0.316-0.129,0.477-0.262,0.495-0.638
	c0.024-0.511,0.482-0.867,0.967-0.854c0.487,0.013,0.896,0.386,0.937,0.899c0.029,0.358,0.02,0.721,0.004,1.081
	c-0.022,0.504-0.351,0.769-0.782,0.946c-2.7,1.107-5.399,2.216-8.098,3.325c-1.42,0.583-2.838,1.17-4.26,1.748
	c-0.281,0.114-0.468,0.233-0.466,0.603c0.015,3.739,0.01,7.479,0.011,11.218c0,0.074,0.017,0.148,0.047,0.385
	c0.347-0.432,0.627-0.763,0.888-1.11c0.714-0.949,1.111-1.964,1.037-3.21c-0.099-1.684-0.033-3.377-0.02-5.067
	c0.006-0.797,0.571-1.254,1.247-1.042c0.488,0.153,0.684,0.529,0.685,1.002c0.009,2.202,0.013,4.404-0.006,6.606
	c-0.003,0.291-0.116,0.596-0.239,0.867c-0.754,1.668-1.825,3.104-3.247,4.262c-0.297,0.242-0.409,0.49-0.404,0.865
	c0.018,1.48,0.018,2.961,0,4.442c-0.004,0.363,0.093,0.57,0.429,0.756c1.283,0.713,1.814,2.111,1.359,3.45
	c-0.432,1.272-1.718,2.123-2.994,1.982c-1.48-0.164-2.566-1.248-2.66-2.728c-0.077-1.213,0.472-2.13,1.523-2.716
	c0.316-0.176,0.409-0.368,0.408-0.71c-0.009-7.631-0.009-15.261,0.001-22.892c0.001-0.4-0.11-0.602-0.502-0.746
	c-3.397-1.247-6.784-2.523-10.182-3.768c-0.229-0.084-0.558-0.055-0.787,0.044c-1.565,0.677-3.111,0.682-4.591-0.175
	c-1.929-1.116-1.924-3.432,0.011-4.535c1.566-0.892,3.2-0.89,4.787-0.051c1.148,0.606,1.704,1.587,1.483,2.961
	c1.596,0.595,3.172,1.182,4.747,1.77c1.828,0.682,3.654,1.371,5.488,2.039c0.212,0.077,0.501,0.12,0.697,0.039
	c3.578-1.46,7.147-2.942,10.826-4.464c-0.218-0.111-0.35-0.19-0.491-0.248c-8.228-3.408-16.455-6.817-24.69-10.21
	c-0.229-0.094-0.564-0.099-0.792-0.005c-8.235,3.391-16.463,6.799-24.692,10.205c-0.136,0.056-0.268,0.123-0.484,0.223
	c0.209,0.107,0.346,0.188,0.491,0.248c8.228,3.407,16.456,6.815,24.691,10.206c0.227,0.094,0.561,0.083,0.792-0.011
	c3.053-1.245,6.094-2.519,9.146-3.766c0.282-0.115,0.685-0.223,0.914-0.105c0.29,0.149,0.563,0.503,0.654,0.823
	c0.119,0.416-0.156,0.77-0.561,0.946c-0.834,0.362-1.676,0.706-2.516,1.054c-2.469,1.021-4.942,2.032-7.404,3.068
	c-0.456,0.192-0.85,0.186-1.305-0.003c-9.224-3.825-18.453-7.636-27.675-11.465c-0.311-0.129-0.553-0.423-0.828-0.64
	C0.947,17.474,0.947,17.246,0.947,17.018z M30.084,18.468c0.57-0.225,1.163-0.402,1.695-0.691c0.37-0.201,0.332-0.551,0.015-0.85
	c-0.727-0.689-2.598-0.707-3.352-0.024c-0.367,0.333-0.39,0.672,0.048,0.926C28.951,18.097,29.486,18.236,30.084,18.468z
	 M45.644,50.421c0.008-0.544-0.412-0.97-0.96-0.97c-0.526,0-0.938,0.392-0.958,0.913c-0.021,0.538,0.398,0.994,0.931,1.012
	C45.184,51.394,45.635,50.958,45.644,50.421z"/>
<path d="M0.947,19.979c0.271-0.414,0.591-0.776,1.145-0.652c0.559,0.125,0.784,0.521,0.818,1.086
	c0.008,0.13,0.257,0.289,0.426,0.359c5.23,2.173,10.464,4.337,15.697,6.503c3.535,1.463,7.067,2.935,10.612,4.376
	c0.274,0.111,0.673,0.105,0.949-0.007c3.124-1.267,6.236-2.566,9.351-3.855c0.192-0.08,0.384-0.166,0.583-0.224
	c0.464-0.134,0.944,0.087,1.14,0.51c0.198,0.427,0.062,0.943-0.338,1.208c-0.156,0.104-0.335,0.176-0.51,0.248
	c-3.325,1.376-6.655,2.742-9.975,4.133c-0.51,0.214-0.952,0.216-1.466,0.002c-9.132-3.792-18.271-7.565-27.401-11.36
	c-0.38-0.158-0.689-0.486-1.032-0.734C0.947,21.043,0.947,20.511,0.947,19.979z"/>
<path d="M31.08,45.586c1.368-0.167,2.665-0.281,3.947-0.492c1.802-0.297,3.536-0.84,5.191-1.625
	c0.647-0.307,1.217-0.136,1.456,0.402c0.242,0.546,0.005,1.054-0.653,1.367c-2.671,1.271-5.505,1.934-8.439,2.15
	c-3.914,0.288-7.777-0.004-11.502-1.341c-4.248-1.525-7.672-4.088-9.946-8.063c-0.339-0.592-0.5-1.2-0.488-1.893
	c0.033-1.898,0.009-3.796,0.014-5.694c0.001-0.226,0.006-0.46,0.067-0.675c0.136-0.486,0.498-0.719,0.986-0.68
	c0.487,0.039,0.805,0.324,0.867,0.827c0.03,0.244,0.021,0.493,0.021,0.739c0.002,1.765-0.025,3.531,0.018,5.295
	c0.011,0.467,0.139,0.985,0.375,1.384c1.8,3.056,4.457,5.123,7.686,6.494c2.544,1.08,5.219,1.567,7.966,1.706
	c0.13,0.007,0.261,0.001,0.484,0.001c0-0.244,0-0.462,0-0.679c0-2.487,0-4.973,0-7.46c0-0.171-0.006-0.342,0.006-0.512
	c0.045-0.604,0.421-0.999,0.949-1.01c0.548-0.011,0.944,0.399,0.987,1.032c0.012,0.17,0.005,0.342,0.005,0.512
	c0,2.468,0,4.935,0,7.403C31.08,44.997,31.08,45.219,31.08,45.586z"/>
<path d="M40.876,59.153c-0.668-0.01-1.154-0.533-1.024-1.109c0.308-1.365,0.648-2.724,1.017-4.074
	c0.142-0.518,0.691-0.751,1.19-0.599c0.457,0.139,0.772,0.627,0.655,1.119c-0.315,1.325-0.651,2.645-0.997,3.962
	C41.598,58.91,41.242,59.111,40.876,59.153z"/>
<path d="M49.54,58.092c0.006,0.537-0.326,0.96-0.794,1.039c-0.492,0.082-0.919-0.115-1.05-0.576c-0.39-1.383-0.735-2.779-1.05-4.181
	c-0.108-0.482,0.298-0.941,0.778-1.023c0.524-0.089,0.97,0.176,1.117,0.73c0.292,1.096,0.554,2.201,0.827,3.302
	C49.432,57.64,49.493,57.897,49.54,58.092z"/>
<path d="M43.716,56.721c0-0.474-0.019-0.949,0.005-1.422c0.031-0.603,0.423-0.998,0.951-1.005c0.528-0.007,0.953,0.384,0.971,0.981
	c0.028,0.967,0.029,1.935,0,2.902c-0.018,0.596-0.446,0.985-0.976,0.975c-0.533-0.01-0.916-0.399-0.947-1.007
	C43.697,57.671,43.716,57.195,43.716,56.721z"/>
</svg>
