<?xml version="1.0" encoding="utf-8"?>
<!-- Generator: Adobe Illustrator 17.0.0, SVG Export Plug-In . SVG Version: 6.00 Build 0)  -->
<!DOCTYPE svg PUBLIC "-//W3C//DTD SVG 1.1//EN" "http://www.w3.org/Graphics/SVG/1.1/DTD/svg11.dtd">
<svg version="1.1" id="Layer_1" xmlns="http://www.w3.org/2000/svg" xmlns:xlink="http://www.w3.org/1999/xlink" x="0px" y="0px"
	 width="60px" height="60px" viewBox="0 0 60 60" enable-background="new 0 0 60 60" xml:space="preserve">
<path d="M46.125,60.125c-15.327,0-30.654,0-45.991,0c0-19.985,0-39.971,0-60c15.324,0,30.657,0,45.991,0
	C46.125,20.125,46.125,40.125,46.125,60.125z M44.097,2.168c-11.345,0-22.642,0-33.924,0c0,18.674,0,37.303,0,55.924
	c11.331,0,22.614,0,33.924,0C44.097,39.445,44.097,20.83,44.097,2.168z M2.168,2.153c0,18.681,0,37.31,0,55.922
	c2.009,0,3.974,0,5.924,0c0-18.665,0-37.279,0-55.922C6.11,2.153,4.16,2.153,2.168,2.153z"/>
<path d="M55.5,60.125c-0.25,0-0.5,0-0.75,0c-0.509-0.353-0.707-0.839-0.625-1.449c0.118-0.886-0.162-1.645-0.621-2.406
	c-1.074-1.781-2.089-3.599-3.101-5.416c-0.162-0.292-0.266-0.659-0.266-0.991c-0.013-15.495-0.011-30.991-0.008-46.486
	c0-0.29,0.011-0.586,0.068-0.868c0.259-1.28,1.151-1.961,2.304-2.384c1.75,0,3.5,0,5.25,0c1.194,0.389,1.981,1.185,2.375,2.375
	c0,16,0,32,0,48c-0.117,0.166-0.248,0.325-0.348,0.501c-1.011,1.762-1.989,3.543-3.036,5.284c-0.456,0.757-0.738,1.514-0.616,2.398
	C56.209,59.29,56.003,59.772,55.5,60.125z M58.097,13.16c-2.023,0-3.972,0-5.934,0c0,11.997,0,23.96,0,35.92
	c2.004,0,3.968,0,5.934,0C58.097,37.086,58.097,25.138,58.097,13.16z M58.003,7.113c0.043-0.039,0.1-0.067,0.1-0.095
	c0.008-1.331,0.042-2.663,0.001-3.993c-0.018-0.574-0.428-0.89-1.008-0.896c-1.311-0.012-2.621-0.016-3.932,0.001
	c-0.662,0.009-1.015,0.392-1.036,1.07c-0.014,0.478-0.004,0.957-0.004,1.435c0,0.822,0,1.645,0,2.476
	C54.154,7.113,56.088,7.113,58.003,7.113z M58.091,11.098c0-0.689,0-1.305,0-1.934c-1.997,0-3.96,0-5.921,0c0,0.671,0,1.302,0,1.934
	C54.164,11.098,56.111,11.098,58.091,11.098z M55.127,55.107c0.789-1.383,1.505-2.637,2.244-3.933c-1.529,0-2.978,0-4.494,0
	C53.631,52.492,54.348,53.745,55.127,55.107z"/>
<path d="M15.153,24.081c0-4.659,0-9.274,0-13.922c7.975,0,15.923,0,23.921,0c0,4.618,0,9.248,0,13.922
	C31.129,24.081,23.166,24.081,15.153,24.081z M37.098,12.169c-6.681,0-13.311,0-19.923,0c0,3.342,0,6.639,0,9.923
	c6.665,0,13.28,0,19.923,0C37.098,18.777,37.098,15.494,37.098,12.169z"/>
<path d="M20.153,16.08c0-0.655,0-1.271,0-1.921c4.655,0,9.283,0,13.942,0c0,0.643,0,1.259,0,1.921
	C29.465,16.08,24.837,16.08,20.153,16.08z"/>
<path d="M20.156,20.083c0-0.664,0-1.28,0-1.926c4.643,0,9.256,0,13.919,0c0,0.621,0,1.252,0,1.926
	C29.459,20.083,24.831,20.083,20.156,20.083z"/>
</svg>
