<?xml version="1.0" encoding="utf-8"?>
<!-- Generator: Adobe Illustrator 17.0.0, SVG Export Plug-In . SVG Version: 6.00 Build 0)  -->
<!DOCTYPE svg PUBLIC "-//W3C//DTD SVG 1.1//EN" "http://www.w3.org/Graphics/SVG/1.1/DTD/svg11.dtd">
<svg version="1.1" id="Layer_1" xmlns="http://www.w3.org/2000/svg" xmlns:xlink="http://www.w3.org/1999/xlink" x="0px" y="0px"
	 width="60px" height="60px" viewBox="0 0 60 60" enable-background="new 0 0 60 60" xml:space="preserve">
<g>
	<path d="M29.25,60.125c-0.992-0.354-2.054-0.582-2.962-1.088c-1.829-1.018-2.984-2.633-3.455-4.682
		c-0.111-0.481-0.311-0.575-0.75-0.573c-3.333,0.015-6.666,0.02-10,0.004c-2.8-0.014-4.909-1.605-5.493-4.172
		c-0.421-1.854-0.02-3.571,1.348-4.896c1.645-1.593,2.294-3.458,2.267-5.719c-0.055-4.603-0.194-9.219,0.075-13.808
		c0.436-7.446,4.188-12.918,10.695-16.508c1.593-0.879,3.312-1.45,5.096-1.814c0.096-0.02,0.187-0.058,0.135-0.042
		c-0.146-0.97-0.443-1.887-0.385-2.782c0.124-1.904,1.415-3.29,3.278-3.799c0.096-0.026,0.184-0.081,0.275-0.122c0.5,0,1,0,1.5,0
		c0.09,0.043,0.175,0.1,0.269,0.127c2.776,0.799,4.031,3.546,2.821,6.182c-0.042,0.091-0.079,0.184-0.146,0.339
		c0.428,0.108,0.833,0.177,1.214,0.311c1.272,0.45,2.542,0.905,3.797,1.399c0.344,0.136,0.564,0.166,0.882-0.09
		c2.893-2.336,6.854-2.581,9.98-0.645c3.132,1.939,4.68,5.577,3.924,9.218c-0.729,3.512-3.71,6.32-7.331,6.744
		c-3.429,0.401-6.262-0.81-8.239-3.649c-1.962-2.815-2.084-5.844-0.59-8.934c0.089-0.184,0.187-0.365,0.294-0.573
		c-2.504-1.219-5.126-1.813-7.871-1.75c-8.305,0.19-15.1,5.729-16.924,13.824c-0.295,1.308-0.402,2.681-0.418,4.026
		c-0.051,4.311-0.039,8.624-0.012,12.936c0.017,2.581-0.872,4.749-2.722,6.543c-1.014,0.983-1.305,2.229-0.792,3.418
		c0.554,1.283,1.575,1.904,2.957,1.905c12.082,0.005,24.164,0.005,36.246,0c1.428-0.001,2.559-0.719,3-1.935
		c0.472-1.304,0.178-2.46-0.826-3.421c-1.849-1.769-2.716-3.938-2.707-6.487c0.013-3.645,0.003-7.291,0.005-10.936
		c0-0.208,0.002-0.419,0.037-0.622c0.106-0.614,0.574-0.981,1.192-0.956c0.599,0.025,1.062,0.449,1.089,1.069
		c0.032,0.728,0.014,1.458,0.015,2.187c0.001,2.979,0.033,5.958-0.011,8.936c-0.031,2.101,0.659,3.836,2.169,5.316
		c1.508,1.478,1.958,3.321,1.353,5.343c-0.614,2.05-2.046,3.288-4.131,3.737c-0.482,0.104-0.994,0.098-1.492,0.099
		c-3.208,0.008-6.416,0.004-9.624,0.004c-0.228,0-0.456,0-0.736,0c-0.075,0.293-0.131,0.573-0.218,0.843
		c-0.96,2.976-2.947,4.801-6.041,5.386c-0.098,0.019-0.191,0.07-0.286,0.106C30.417,60.125,29.833,60.125,29.25,60.125z
		 M38.824,15.099c-0.023,3.473,2.779,6.31,6.279,6.357c3.437,0.047,6.327-2.799,6.374-6.275c0.047-3.469-2.834-6.378-6.324-6.388
		C41.68,8.784,38.847,11.607,38.824,15.099z M25.152,53.826c0.391,2.285,2.644,3.995,5.125,3.94c2.306-0.051,4.518-1.866,4.763-3.94
		C31.755,53.826,28.474,53.826,25.152,53.826z M30.081,2.482c-1.101,0.011-1.97,0.898-1.96,2.003c0.01,1.086,0.931,1.988,2.01,1.97
		c1.075-0.018,1.991-0.956,1.973-2.021C32.087,3.349,31.178,2.472,30.081,2.482z"/>
	<path d="M29.284,12.093c0.349,0,0.557-0.006,0.765,0.001c0.711,0.025,1.177,0.444,1.211,1.083c0.036,0.678-0.401,1.139-1.128,1.233
		c-1.05,0.135-2.124,0.188-3.139,0.458c-3.495,0.929-6.026,3.076-7.642,6.307c-0.065,0.13-0.127,0.262-0.191,0.393
		c-0.369,0.748-0.972,1.028-1.613,0.747c-0.649-0.284-0.903-0.996-0.489-1.747c0.609-1.107,1.202-2.252,1.995-3.225
		C21.717,14.074,25.218,12.369,29.284,12.093z"/>
	<path d="M18.137,26.391c-0.013,0.649-0.505,1.134-1.154,1.135c-0.675,0.001-1.175-0.514-1.158-1.194
		c0.015-0.648,0.515-1.142,1.156-1.143C17.648,25.189,18.15,25.711,18.137,26.391z"/>
	<path d="M43.942,14.959c-0.657-0.068-1.136-0.289-1.3-0.892c-0.165-0.605,0.151-1.033,0.57-1.421
		c0.351-0.325,0.678-0.676,1.02-1.012c0.375-0.368,0.812-0.506,1.311-0.297c0.494,0.207,0.726,0.595,0.725,1.13
		c-0.002,1.499,0.009,2.999-0.005,4.498c-0.007,0.736-0.471,1.226-1.127,1.244c-0.642,0.018-1.155-0.469-1.188-1.188
		C43.918,16.357,43.942,15.691,43.942,14.959z"/>
</g>
</svg>
