<?xml version="1.0" encoding="utf-8"?>
<!-- Generator: Adobe Illustrator 17.0.0, SVG Export Plug-In . SVG Version: 6.00 Build 0)  -->
<!DOCTYPE svg PUBLIC "-//W3C//DTD SVG 1.1//EN" "http://www.w3.org/Graphics/SVG/1.1/DTD/svg11.dtd">
<svg version="1.1" id="Layer_1" xmlns="http://www.w3.org/2000/svg" xmlns:xlink="http://www.w3.org/1999/xlink" x="0px" y="0px"
	 width="60px" height="60px" viewBox="0 0 60 60" enable-background="new 0 0 60 60" xml:space="preserve">
<g>
	<path d="M2.358,14.634c0.498-0.717,1.165-0.88,1.583-0.334c0.177,0.232,0.252,0.596,0.253,0.9
		c0.015,5.293,0.011,10.586,0.011,15.879c0,6.522-0.001,13.043,0,19.565c0,2.001,1.118,3.118,3.12,3.118
		c7.064,0.001,14.127,0,21.191,0c0.195,0,0.391,0,0.661,0c0-0.687,0.022-1.331-0.018-1.971c-0.008-0.132-0.227-0.304-0.385-0.364
		c-2.261-0.863-4.594-1.369-7.026-1.363c-4.824,0.012-9.579,0.588-14.263,1.744c-0.972,0.24-1.431-0.123-1.431-1.143
		c-0.001-13.35-0.001-26.701,0-40.051c0-0.849,0.183-1.095,0.987-1.299c4.874-1.235,9.832-1.806,14.853-1.803
		c2.849,0.001,5.577,0.65,8.209,1.741c0.683,0.283,0.945,0.707,0.944,1.444c-0.016,11.399-0.011,22.798-0.011,34.198
		c0,0.227,0,0.453,0,0.764c1.068-0.58,2.042-1.12,3.026-1.64c3.99-2.109,8.047-4.069,12.312-5.57
		c0.312-0.11,0.399-0.277,0.399-0.594c-0.007-11.67-0.006-23.34-0.008-35.011c0-0.12-0.022-0.24-0.042-0.447
		c-0.857,0.368-1.667,0.703-2.467,1.062c-3.576,1.606-7.025,3.453-10.391,5.46c-0.139,0.083-0.274,0.175-0.416,0.254
		c-0.552,0.304-1.097,0.187-1.367-0.29c-0.262-0.463-0.114-0.972,0.412-1.289c0.927-0.559,1.859-1.111,2.802-1.642
		C39.105,3.808,43,1.845,47.083,0.272c0.094-0.036,0.175-0.108,0.261-0.164c0.217,0,0.434,0,0.65,0
		c0.494,0.309,0.63,0.761,0.63,1.33c-0.01,12.375-0.008,24.75-0.008,37.125c0,0.869-0.136,1.094-0.872,1.351
		c-5.832,2.034-11.31,4.818-16.659,7.874c-0.204,0.116-0.402,0.248-0.618,0.335c-0.584,0.234-1.156-0.088-1.259-0.711
		c-0.038-0.229-0.027-0.468-0.027-0.702c-0.001-11.707-0.006-23.413,0.015-35.12c0.001-0.579-0.191-0.805-0.707-0.988
		c-2.442-0.87-4.946-1.307-7.541-1.246c-4.182,0.098-8.315,0.588-12.402,1.481c-0.476,0.104-0.664,0.255-0.663,0.798
		C7.904,24.136,7.9,36.637,7.9,49.139c0,0.195,0,0.391,0,0.621c1.276-0.24,2.492-0.493,3.716-0.695
		c3.732-0.617,7.489-0.961,11.274-0.813c2.364,0.093,4.632,0.683,6.836,1.537c0.255,0.099,0.604,0.116,0.859,0.027
		c3.841-1.338,7.784-1.812,11.839-1.533c3.249,0.223,6.466,0.625,9.631,1.403c0.068,0.017,0.139,0.021,0.237,0.036
		c0-12.894,0-25.766,0-38.675c-0.342-0.07-0.676-0.139-1.009-0.208c-0.628-0.13-0.978-0.557-0.89-1.083
		c0.093-0.556,0.581-0.854,1.237-0.736c0.568,0.102,1.136,0.21,1.698,0.338c0.574,0.131,0.813,0.443,0.836,1.036
		c0.005,0.126,0.001,0.253,0.001,0.379c0,13.242,0,26.485,0,39.727c0,0.145,0.006,0.29-0.003,0.433
		c-0.048,0.724-0.552,1.058-1.27,0.91c-2.313-0.474-4.615-1.038-6.949-1.362c-4.778-0.664-9.539-0.695-14.193,0.891
		c-0.555,0.189-0.793,0.425-0.722,1.013c0.051,0.426,0.01,0.863,0.01,1.376c0.228,0,0.419,0,0.609,0c7.1,0,14.2,0.001,21.3-0.001
		c1.927,0,3.067-1.139,3.067-3.063c0.001-11.653,0.001-23.305,0.001-34.958c0-0.181,0.01-0.362-0.002-0.542
		c-0.034-0.534,0.098-0.987,0.658-1.167c0.573-0.183,0.913,0.163,1.19,0.601c0,12.321,0,24.643,0,36.964
		c-0.047,0.17-0.094,0.341-0.141,0.511c-0.413,1.484-1.321,2.545-2.739,3.149c-0.361,0.154-0.753,0.236-1.131,0.351
		c-15.826,0-31.653,0-47.479,0c-0.136-0.039-0.272-0.08-0.409-0.116c-1.687-0.444-2.824-1.481-3.388-3.137
		c-0.073-0.216-0.143-0.433-0.214-0.649C2.358,39.349,2.358,26.992,2.358,14.634z"/>
	<path d="M19.817,38.838c1.589,0.201,3.182,0.38,4.766,0.613c0.681,0.1,0.984,0.561,0.866,1.129
		c-0.113,0.544-0.602,0.791-1.274,0.654c-3.253-0.663-6.497-0.465-9.736,0.115c-0.532,0.095-1.059,0.219-1.588,0.332
		c-0.617,0.131-1.086-0.131-1.21-0.679c-0.117-0.516,0.172-0.962,0.768-1.11C14.836,39.293,17.302,38.994,19.817,38.838z"/>
	<path d="M25.467,34.827c-0.001,0.582-0.502,1.024-1.091,0.898c-3.862-0.826-7.68-0.443-11.484,0.391
		c-0.67,0.147-1.13-0.104-1.254-0.673c-0.115-0.529,0.183-0.96,0.835-1.112c3.921-0.916,7.867-1.265,11.86-0.501
		C25.151,33.986,25.467,34.27,25.467,34.827z"/>
	<path d="M20.078,27.769c1.36,0.166,2.864,0.329,4.359,0.548c0.31,0.045,0.697,0.226,0.853,0.47c0.15,0.234,0.141,0.667,0.032,0.947
		c-0.159,0.41-0.565,0.482-1.005,0.433c-1.485-0.165-2.97-0.392-4.46-0.431c-2.261-0.06-4.495,0.284-6.703,0.773
		c-0.141,0.031-0.281,0.068-0.423,0.089c-0.561,0.084-0.983-0.192-1.093-0.709c-0.102-0.48,0.15-0.937,0.683-1.061
		c1.017-0.237,2.039-0.477,3.073-0.61C16.895,28.023,18.408,27.924,20.078,27.769z"/>
	<path d="M19.881,16.646c1.571,0.197,3.145,0.374,4.711,0.6c0.666,0.096,0.979,0.575,0.855,1.142
		c-0.114,0.523-0.599,0.796-1.231,0.662c-3.233-0.686-6.457-0.482-9.678,0.083c-0.55,0.097-1.094,0.225-1.64,0.342
		c-0.658,0.14-1.137-0.118-1.26-0.683c-0.116-0.534,0.19-0.966,0.832-1.118C14.901,17.096,17.363,16.771,19.881,16.646z"/>
	<path d="M20.178,22.235c1.255,0.155,2.828,0.342,4.397,0.548c0.417,0.055,0.811,0.261,0.845,0.708
		c0.023,0.301-0.086,0.708-0.292,0.904c-0.191,0.182-0.61,0.249-0.893,0.191c-3.774-0.768-7.5-0.402-11.217,0.397
		c-0.285,0.061-0.676,0.11-0.877-0.033c-0.252-0.18-0.472-0.553-0.5-0.861c-0.042-0.46,0.309-0.759,0.76-0.847
		c1.202-0.236,2.402-0.501,3.615-0.659C17.284,22.417,18.566,22.364,20.178,22.235z"/>
	<path d="M34.826,26.923c-0.559-0.015-0.876-0.254-0.986-0.71c-0.112-0.463,0.086-0.826,0.499-1.033
		c1.046-0.526,2.089-1.064,3.16-1.536c1.697-0.748,3.408-1.466,5.129-2.157c0.655-0.263,1.23,0.065,1.34,0.667
		c0.081,0.442-0.179,0.834-0.662,1.049c-2.666,1.182-5.33,2.37-7.996,3.553C35.13,26.834,34.939,26.884,34.826,26.923z"/>
	<path d="M44.091,33.492c-0.233,0.255-0.421,0.622-0.716,0.757c-2.717,1.245-5.452,2.451-8.184,3.664
		c-0.541,0.24-1.059,0.067-1.287-0.411c-0.224-0.469-0.074-0.985,0.452-1.224c2.721-1.236,5.453-2.449,8.185-3.662
		c0.425-0.189,0.857-0.199,1.191,0.183C43.867,32.952,43.929,33.17,44.091,33.492z"/>
	<path d="M34.585,21.468c-0.228-0.221-0.58-0.417-0.675-0.698c-0.089-0.266,0.074-0.629,0.167-0.937
		c0.029-0.095,0.184-0.168,0.297-0.219c2.693-1.213,5.387-2.422,8.083-3.627c0.147-0.066,0.307-0.112,0.466-0.138
		c0.458-0.074,0.906,0.232,1.028,0.686c0.122,0.455-0.127,0.908-0.632,1.112c-1.002,0.404-2.024,0.763-3.008,1.206
		c-1.643,0.739-3.262,1.531-4.894,2.295C35.193,21.252,34.955,21.327,34.585,21.468z"/>
	<path d="M34.802,32.493c-0.512-0.052-0.832-0.255-0.951-0.692c-0.134-0.49,0.069-0.861,0.501-1.078
		c1.062-0.535,2.122-1.079,3.209-1.559c1.647-0.727,3.309-1.421,4.982-2.086c0.284-0.113,0.721-0.122,0.966,0.025
		c0.237,0.142,0.417,0.536,0.444,0.836c0.037,0.407-0.276,0.659-0.664,0.818c-1.55,0.633-3.103,1.262-4.635,1.938
		c-1.104,0.487-2.175,1.048-3.264,1.569C35.18,32.364,34.956,32.433,34.802,32.493z"/>
	<path d="M43.986,11.127c-0.025,0.516-0.264,0.794-0.664,0.971c-2.684,1.188-5.366,2.38-8.047,3.574
		c-0.595,0.265-1.1,0.146-1.355-0.337c-0.251-0.475-0.096-1.016,0.453-1.265c2.721-1.236,5.449-2.458,8.186-3.658
		c0.586-0.257,1.037-0.101,1.282,0.324C43.92,10.873,43.953,11.035,43.986,11.127z"/>
</g>
</svg>
