<?xml version="1.0" encoding="utf-8"?>
<!-- Generator: Adobe Illustrator 17.0.0, SVG Export Plug-In . SVG Version: 6.00 Build 0)  -->
<!DOCTYPE svg PUBLIC "-//W3C//DTD SVG 1.1//EN" "http://www.w3.org/Graphics/SVG/1.1/DTD/svg11.dtd">
<svg version="1.1" id="Layer_1" xmlns="http://www.w3.org/2000/svg" xmlns:xlink="http://www.w3.org/1999/xlink" x="0px" y="0px"
	 width="30px" height="30px" viewBox="0 0 30 30" enable-background="new 0 0 30 30" xml:space="preserve">
<path fill="#00b4ff" d="M14.365,0.01c0.5,0,1,0,1.5,0c0.551,0.098,1.11,0.163,1.651,0.299c6.416,1.617,9.525,8.777,6.328,14.578
	c-2.684,4.871-5.381,9.736-8.08,14.599c-0.11,0.199-0.306,0.35-0.462,0.524c-0.125,0-0.25,0-0.375,0
	c-0.162-0.182-0.364-0.342-0.479-0.55c-2.683-4.836-5.356-9.679-8.033-14.519c-1.11-2.006-1.569-4.149-1.175-6.411
	c0.713-4.089,3.085-6.791,7.026-8.087C12.94,0.222,13.664,0.151,14.365,0.01z M15.124,15.01c2.755-0.004,4.997-2.258,4.99-5.018
	c-0.007-2.742-2.25-4.98-4.994-4.982c-2.759-0.002-5.006,2.243-5.005,5.002C10.115,12.769,12.365,15.014,15.124,15.01z"/>
</svg>
