<?xml version="1.0" encoding="utf-8"?>
<!-- Generator: Adobe Illustrator 17.0.0, SVG Export Plug-In . SVG Version: 6.00 Build 0)  -->
<!DOCTYPE svg PUBLIC "-//W3C//DTD SVG 1.1//EN" "http://www.w3.org/Graphics/SVG/1.1/DTD/svg11.dtd">
<svg version="1.1" id="Layer_1" xmlns="http://www.w3.org/2000/svg" xmlns:xlink="http://www.w3.org/1999/xlink" x="0px" y="0px"
	 width="30px" height="30px" viewBox="0 0 30 30" enable-background="new 0 0 30 30" xml:space="preserve">
<path fill="#000033" d="M15,0C6.716,0,0,6.716,0,15s6.716,15,15,15s15-6.716,15-15S23.284,0,15,0z M22.737,16.263h-6.474v6.474
	C16.263,23.434,15.698,24,15,24s-1.263-0.566-1.263-1.263v-6.474H7.263C6.566,16.263,6,15.698,6,15s0.566-1.263,1.263-1.263h6.474
	V7.263C13.737,6.566,14.302,6,15,6s1.263,0.566,1.263,1.263v6.474h6.474C23.434,13.737,24,14.302,24,15S23.434,16.263,22.737,16.263
	z"/>
</svg>
