<?xml version="1.0" encoding="utf-8"?>
<!-- Generator: Adobe Illustrator 17.0.0, SVG Export Plug-In . SVG Version: 6.00 Build 0)  -->
<!DOCTYPE svg PUBLIC "-//W3C//DTD SVG 1.1//EN" "http://www.w3.org/Graphics/SVG/1.1/DTD/svg11.dtd">
<svg version="1.1" id="Layer_1" xmlns="http://www.w3.org/2000/svg" xmlns:xlink="http://www.w3.org/1999/xlink" x="0px" y="0px"
	 width="30px" height="30px" viewBox="0 0 30 30" enable-background="new 0 0 30 30" xml:space="preserve">
<path fill="#00b4ff" d="M0.062,15.933c0-0.643,0-1.286,0-1.929c0.059-0.429,0.115-0.858,0.178-1.286C1.134,6.635,5.9,1.607,11.952,0.38
	c0.698-0.141,1.409-0.214,2.115-0.318c0.622,0,1.245,0,1.867,0c0.091,0.018,0.181,0.038,0.272,0.053
	c0.806,0.13,1.636,0.179,2.415,0.401c6.048,1.729,9.751,5.676,11.071,11.835c0.121,0.563,0.165,1.143,0.245,1.715
	c0,0.622,0,1.245,0,1.867c-0.019,0.1-0.047,0.2-0.055,0.301c-0.101,1.342-0.392,2.642-0.858,3.903
	c-3.009,8.15-12.236,12.067-20.142,8.47c-4.592-2.089-7.417-5.691-8.511-10.624C0.222,17.311,0.163,16.618,0.062,15.933z
	 M6.542,9.618c0.121,0.86,0.197,1.73,0.372,2.58C8.239,18.643,13.949,23.33,20.529,23.4c0.547,0.006,1.012-0.156,1.389-0.568
	c0.266-0.29,0.566-0.549,0.829-0.842c0.178-0.198,0.359-0.411,0.466-0.65c0.525-1.169-0.167-2.589-1.442-2.971
	c-0.694-0.207-1.395-0.396-2.098-0.571c-0.783-0.195-1.476-0.009-2.06,0.556c-0.179,0.173-0.361,0.344-0.526,0.53
	c-0.126,0.142-0.244,0.175-0.433,0.112c-2.813-0.931-4.685-2.803-5.637-5.605c-0.068-0.201-0.056-0.343,0.114-0.488
	c0.212-0.182,0.407-0.385,0.594-0.593c0.483-0.539,0.656-1.182,0.502-1.878c-0.166-0.747-0.371-1.488-0.6-2.218
	c-0.478-1.521-2.463-2.238-3.653-0.931c-0.23,0.253-0.47,0.5-0.727,0.725C6.758,8.436,6.538,8.963,6.542,9.618z"/>
</svg>
